/* XPM */
static char *result[] = {
/* columns rows colors chars-per-pixel */
"50 60 224 2 ",
"   c #3F4549",
".  c #40464A",
"X  c #434A4E",
"o  c #464D52",
"O  c #484F54",
"+  c #495155",
"@  c #4C555B",
"#  c #4B545B",
"$  c #51595E",
"%  c #50575C",
"&  c #4D5A65",
"*  c #4F5B6A",
"=  c #545C63",
"-  c #576065",
";  c #586167",
":  c #5C656B",
">  c #57636D",
",  c #476577",
"<  c #5A697C",
"1  c #53697E",
"2  c #60696F",
"3  c #636C74",
"4  c #606F7F",
"5  c #687279",
"6  c #4A6B81",
"7  c #5C6D83",
"8  c #576C88",
"9  c #5A738D",
"0  c #5D7498",
"q  c #586F9B",
"w  c #61768E",
"e  c #657B9A",
"r  c #677A94",
"t  c #557EB6",
"y  c #5F79A0",
"u  c #657DA4",
"i  c #3554DF",
"p  c #365BDF",
"a  c #395EDF",
"s  c #3868DF",
"d  c #3A7BDF",
"f  c #3B5DE0",
"g  c #3C64E1",
"h  c #3C6CE1",
"j  c #3669E2",
"k  c #3B75E1",
"l  c #3C7BE2",
"z  c #3979E8",
"x  c #4E78D4",
"c  c #637AD8",
"v  c #445EE2",
"b  c #4464E2",
"n  c #4B65E3",
"m  c #456BE1",
"M  c #4C6CE3",
"N  c #536CE4",
"B  c #5B6DE5",
"V  c #5366E4",
"C  c #4373E2",
"Z  c #4C74E3",
"A  c #447BE4",
"S  c #4B7BE4",
"D  c #497CE9",
"F  c #437FED",
"G  c #5572E4",
"H  c #5D74E6",
"J  c #537CE4",
"K  c #5D7BE5",
"L  c #587CE8",
"P  c #6374E6",
"I  c #647AE7",
"U  c #697BE7",
"Y  c #6B7CE8",
"T  c #697AE8",
"R  c #727DE9",
"E  c #626FE7",
"W  c #688193",
"Q  c #5B8CB6",
"!  c #6582A3",
"~  c #6A82A8",
"^  c #6A8AB3",
"/  c #7289B2",
"(  c #7A90B5",
")  c #718AAD",
"_  c #3D84E3",
"`  c #3C8CE3",
"'  c #3C87E9",
"]  c #3B8BEA",
"[  c #3C93EC",
"{  c #3F9DEC",
"}  c #3C93F0",
"|  c #3E9AF0",
" . c #3F8FF0",
".. c #3EA7F0",
"X. c #3DA0EE",
"o. c #5E8ED1",
"O. c #6495C3",
"+. c #6B8FD1",
"@. c #4483E4",
"#. c #4189E4",
"$. c #4B84EA",
"%. c #438EEA",
"&. c #4C8DEC",
"*. c #4885E7",
"=. c #5385E6",
"-. c #5C82E5",
";. c #5389E4",
":. c #5C85E9",
">. c #538BEA",
",. c #5A8CEB",
"<. c #5787E9",
"1. c #4394EB",
"2. c #4D94ED",
"3. c #449BED",
"4. c #4B9DEE",
"5. c #4697E6",
"6. c #5393EE",
"7. c #5B95EC",
"8. c #539BEE",
"9. c #5899EF",
"0. c #5A96E5",
"q. c #4C94F0",
"w. c #449BF1",
"e. c #4C9DF0",
"r. c #4592F1",
"t. c #5394F0",
"y. c #549CF0",
"u. c #599CF1",
"i. c #5D93F0",
"p. c #6583E7",
"a. c #6D83E8",
"s. c #618CEA",
"d. c #6B8BEA",
"f. c #6688E8",
"g. c #7384E9",
"h. c #7A85EA",
"j. c #758CEA",
"k. c #7B8BEA",
"l. c #7E8FE6",
"z. c #6D9CEB",
"x. c #6595EA",
"c. c #7493EB",
"v. c #7D93EB",
"b. c #7C9AEC",
"n. c #759CEB",
"m. c #659BF1",
"M. c #6799F1",
"N. c #42A2EC",
"B. c #4BA4EE",
"V. c #44AAEE",
"C. c #55A1EE",
"Z. c #44A4F0",
"A. c #4BA3F0",
"S. c #49AAF1",
"D. c #52A1F0",
"F. c #5CA5F1",
"G. c #78A7EE",
"H. c #69A5F2",
"J. c #76A2F1",
"K. c #6AA5E5",
"L. c #869ABF",
"P. c #869AC3",
"I. c #8A98DC",
"U. c #95A5C5",
"Y. c #ABB2D3",
"T. c #828DEB",
"R. c #8392EC",
"E. c #8B95ED",
"W. c #849AEC",
"Q. c #8C9BED",
"!. c #8698E2",
"~. c #929CEE",
"^. c #999EEF",
"/. c #9195EE",
"(. c #8EA2ED",
"). c #87A5ED",
"_. c #94A2EE",
"`. c #9AA3EF",
"'. c #9AA9EF",
"]. c #96ABEF",
"[. c #84A2F1",
"{. c #87AAF3",
"}. c #9DA4F0",
"|. c #9FABF0",
" X c #98B6F4",
".X c #9CBBEF",
"XX c #ABB3EF",
"oX c #B3BBE7",
"OX c #A2A6F0",
"+X c #A3ACF1",
"@X c #AAAEF2",
"#X c #A5B1F1",
"$X c #ACB3F2",
"%X c #ADBAF3",
"&X c #A4BEF1",
"*X c #B2B5F3",
"=X c #B5BAF3",
"-X c #BABDF4",
";X c #A0ACEA",
":X c #9EC1F6",
">X c #BCC7E5",
",X c #ACC3F7",
"<X c #BDC2F5",
"1X c #BAC8F6",
"2X c #C2C5F5",
"3X c #C5CAF6",
"4X c #CBCCF7",
"5X c #CDD1F7",
"6X c #CDD2F8",
"7X c #C9D8FA",
"8X c #D3D5F8",
"9X c #D5D9F9",
"0X c #DBDCF9",
"qX c #D3D5F5",
"wX c #D6E1FB",
"eX c #DDE2FA",
"rX c #DCE1F5",
"tX c #E3E4FB",
"yX c #E6E9FB",
"uX c #ECECFC",
"iX c #EFF0FD",
"pX c #F3F3FD",
"aX c #FBFBFE",
"sX c None",
/* pixels */
"sXsXsXu.F.H.N.M.<.7XeXwX,XwXeX7X$. XeXwX6X1XeXwX{.M.wXeXwX,XwXwX,XF.9XwXwX,XeXwX X:Xm.H.H.u.sXsXsXsX",
"sXsXsXe.H.2.8.1XD 3XeX-XiXeX4XyXd.n.pX%XuXuX8X6X3XA eX9X<XuXeX4XpXz.yX1X6XiX9X4XpX9X%XJ.] q.D.sXsXsX",
"sXsXsX9.4.1._ tX9XOXuXh.9X5X^.uXpX^.tX=XOXuX}.8XpX3X*XuXR 9X3XOXuXj.3X5XR.uX@X-X4XN c.<Xv.t.9.sXsXsX",
"sXsXt.sX8.` m _.pXh.tX<X8XT.tXn.uX+X$XtX<X~.3X*X.XyXh.tX2X3XE.uX;.R.Q.yX-X*XOX8X*._.0.L }.n.1.u.sXsX",
"sXu.N.sX{ j 5Xi `.0XqX*X5X<XuX@Xa.5X9X9XOX9X8X3XB *X0X8X*X8X2XpX$XqX9X8XOXtX3XuX@X`.h.J s L [ [ D.sX",
"sXsX..1.:.h J S tXpXuXpX0XtX$X2X3XpXpXyXtXuX=X-Xh.pXaXyXiX0X0X@X3XtXpXuXyXtX2X=X-Xg.OXR.k OX%.e.S.sX",
"sXsX| | A _ k M 1XuX~.tX/.uX8XS ^.eX1X$X<X-XpXv.G 8X0X^.0X^.iX2XZ =X8X}.0XOXpX'.G <X0X;.=.+X' V.sXsX",
"sXsXy.V.z.;.d.j.-.uXqX0X*XuXqXh.#X4X9X0X5X4XpXh.K c.uX8X0X-XiX2XY 3XtX0X0X*XaX`.Q.9XW.d d.8.m.sXsXsX",
"sXsXsXu.z.;.f.`.M rXtX=X=X0X0X$X`.*XtX2X3X=XpX~.'.P tXtX*X=XtX5X^.=XtX8X4X@XiX*X4X4Xp.l S ] &.sXsXsX",
"sXsXsXD.7.j.s A 2X0XyXuX5XiX*XP Q.8XuXtXyX0X0Xg.C 8XtXyXyX5XpX`.g.3XuXtXuX4XuXT.E.%X` 1.&.{.w.t.sXsX",
"sXsXm.S.,.a.i s 8XuXuX0X*X8XT ^.E.pXtXpXOXuXT./.B uXyXpX5X=X2XT *XuXuXpX@XtX`.k.-X4X@.l k @.u.} y.sX",
"sXB.X.>.M #.s a -XpXpXtXiX=XT.*XY iXyXpXtXtXh.<XH 8XpXpX0XiX$X/.*XqXiXpX9XpXT.@X@X4Xj N p.7.Z.r.A.sX",
"sXsX4.[.5.x.s `.tX*XuXpXuX<X8X-X9X4X4XuXpX8X<XtX*XtX*XtXpXtX-X0X@X-X-XyXiXtX*XtXR.N `.c.@.>.u.w.sXsX",
"sXsX2.{.,.h ` v.0XR.9XtXuX4X3X4X9X$X@XqXpXyX@XtX*X8XR.qXuXuX<X8X4X|._.8XiXyX*X0X*XH k.d.l ] A.u.sXsX",
"sXsXsXM.<X#.s `.3Xg.yXyX4X4X/.tX4XR.=XtXtXeXh.0X4X=Xk.uXtX4X*XOXtXE.^.tXtXqXE.2X5X2XM #._ M.e.sXsXsX",
"sXsXsXB.<.A m k./.R.yXuXiXuXY 9X^.Y 9X0XpXiX@X@X0XR.^.tXiXuXyXT yXR.=XtXpXuX3XQ.yX*XM j.` ' w.sXsXsX",
"sXsX4.] ).U P 4X=XT pX8XpXpXR.OX5XI qXtXuXuX8XV tX@Xk.pX9XpXpXY %XR.@XuXyXuXuXB 5X-X-.j.n.3.sXu.i.sX",
"sXA.[ ' J `.Q.M P *XuX2XpX<X~.=XP h.yX3XuXtXT.=X@XT 2XyX4XuX@XOX=Xh.9X8XtXyX^.*X2XuX=Xb >.{ sXw.q.sX",
"sXH.Z.8.$.k P ~.^.T.pX8XuXuXtXqXOXR 4XpX8XpX9XuX+XT.E.pX9XtXyXtX8XT.@XpX4XuXtXyX=X_.uX<.2.F q.y.sXsX",
"sXsXS.8.6.Z #X@XuX-Xg.3X0XpX0XuX6XtXh.=X-XpXtXpX3X1X@Xh.4XeXuXtXuX0X_.|.-XpXtXyX5XM $X_ x. Xw.y.sXsX",
"sXsXsXsX%.,XpXf.|.0Xg.9X<Xh.0XtX,.0X+X_.9XR.*XpX'.&X8XY 0X=XR.tXqX3X<XR.0X}.^.uX-XZ k.H A D 2.sXsXsX",
"sXsXsXsXm.6Xp.a.G 8X0X0X4X4XuX4XG @X9XeXtX-XtXpXT.Y 9X0XtX3X4XpX<X`.0XeXuX=XqXpX*X8X3XB k @.&.sXsXsX",
"sXsXy.S.B.$.k ~.-XpX4XtXtX2XiX0X=XtXtXqX0X4XtXpX<X4XpX3XtX0X4XpX8X9XuX4XtX8X5XpX-XW.4XI _.l ] 8.sXsX",
"sXA.S.9.y.` Q.2X6X4XeXuX2X2XpX*Xd.8XqXyX9X*XuXqXR.8X3XtXuX2X4XpX@X<X4XyXyX*X0XuX^.b.c.g.s C z [ y.sX",
"sXr.Z.V.sX.X=XI T.g.0X=X5XqX3XT.$XN 4X-X5X3XtXh.OXg.E.8X=X4X0X*XT.U #X2X<X3XtX/.OX}.f f n j [ 8.sXsX",
"sXsXZ.1.8.7.=X-Xa 2XyXyX+X/.4X5X$Xk.uX0XtXT 3X2X8Xb 8XyXyX~.`.4X2Xj.yXtXuXT *X4XtX0XS j g f.1.u.sXsX",
"sXsXsXt.] %.z.-XM yXqX-XtX3X/.|.#X%XuX@XuX4X-XY 3XK pX4X3XtX4XR.~.+XuX*X0X5X4Xh.-X`.m v g <.H.sXsXsX",
"sXsXsXq.{ z b.].m tXiX2XuXuX2XV ].#XuXqX0XuXtXH Q.K uXiX<XtXuX$XG `.uXtX8XuXyXT.k.f f $XB $.6.sXsXsX",
"sXsXsX] 5.=.3X_.M 9XtX+XeXpX@XR.v.}.pX=X9XuX9XY |.H tXeX@XtXpX~.h._.uX<X3XtXyXk.@X1Xb b #.c.2.y.sXsX",
"sXu.S.J.z.S g.2XM 3XtXaXtXyXH @X|.j.yXuXuXeX$XN 9Xb tXtXpXtXtXb @Xd.yXuXpX9X4Xn 8X0X-.U z.,.G.D.sXsX",
"sXu.B.$.A ).T.h ).yX5XtX+X0X|.B '.7X8X9X9X$X0Xn T.#XyXqXyX'.tXT.U 3X0XqXyX`.uXI R.S I R.x.<.7...y.sX",
"sXsXA.J.,.0.N -.tX#X0XyX<X<X4X`.@X5X%XtXrX$X5X$XR.uX'.0XtX<X2X2XOX8X|.tXyX#X4X*X~.N qXk.Z x.u.D.sXsX",
"sXsXsX3.c.k B f v.iXtX4X=XtXR 0X$XeXtX0X4X2X=X`.j.'.pXuX8X*X0XT 3X4XuXtX0X@X4XT.tXV g.qXS V.%.sXsXsX",
"sXsXsX6.*.G ~.v N }.yX2X5XuX}.+X<XH tXyX*XyX9XY '.N =XyX3X8XiXT.^.P qXuX=XyXuXa.=XC #Xs.` ' 2.sXsXsX",
"sXsXsXJ.c.g a l <XuXyX0X2XpXpXH 2X0XyXpX@XuXpX+XY qXuXuXqX4XuXuXP 8XuXpX*XtXaX5Xa.M 4X).` { q.t.sXsX",
"sXsXsX| m N s m <XuXuX=XtX=XuXE.R.uXyXyX*X4X0X3Xg.3XuXuX-X0X<XuXQ.8XyXuX*X0X4X8Xg.n `.=X{.8.3.S.q.sX",
"sXsXe.' j f n f @XpX9XyXuX8XE E.Q.uXtX0XuX0X^.T @X2XuX9XuXuX5XV E.9XyX0XpXtX*XE }.OXY Q.{.sX{ B.w.sX",
"sXy.| z A f.g.*XJ 3X-X0X}.uX$X}.f.(.qX4X@X4XtXR.$Xf.9X-X9XOXpX~.Q.R.9X2X3X*XpXE.=X0XeX(.{ B.F.S.sXsX",
"sXsXsX[ l R.I 9X=XE.k.9XOXyX8Xg.1XQ.E.@X=X8XyX$XZ _./.k.qX*XuX3XR.W.Q.~.4X3XuX=XK ~.Y k s.F.F.sXsXsX",
"sXsXsX,.A ` I $X+XyX8X0XpXpXyX/.c.4XpX-XpXpXuX8XZ %XuX4XtXpXiXtX_.<XpX-XyXpXuX0Xg.-.-.}.uX2.sXsXsXsX",
"sXsXsXw.z.:.Z g.s 5X9X2X9XtXtX*Xm v.aX@XuX4XuX8XR.m tX5X3XqXyXtX}.H pX*XtX3XpX9X%X3Xa.eXb.2.sXsXsXsX",
"sXsXA.q.G.>.#.8Xg.2X0XtX4X0XT 4XQ.v.8XyX0X0X@XR.8XV 9X0X0X5X0XV 8XT 0XtXtX8X-XH tXyX4XQ.l *.D.A.sXsX",
"sXt.e.y.%.1.L yX2XQ.uX=X-XOXQ.*XW.h.9XtX}.qXY <X~.#XOXpX*X<XE.+X-XQ.2XuX^.8Xa.-X~.h.T ~.M D 3...F.sX",
"sXt.w.sXw.d.m Q.eX4XuXtXuX0XyXZ =X8X9XtXuX9XuX'.L tX3XuXtXuXeX0XL 4X4XyXyXtXyX2Xs T g.N %Xj.z ] D.sX",
"sXsXu.D.3.7.`.k @XyXqX2X2X0XyX2X@X8XuX<X-XqXtXpX$X<XiX5X2X2X0XpX2X4XiX<X-XqXtXpX@X*X<XY S :.N.y.sXsX",
"sXsXsXw.%.] =.N 2XuX*X5X@X2XR.5X@XtXtX$X-X3X~.%X-X4XuX$X8X@X-XT.qX4XuX+X4X-XOX_.2X`.h.s *.v.8.sXsXsX",
"sXsXsX4.7._ s.N }.uXR.2X5XiX4Xn R tX3Xh.tXyXtXa.B =XyXk.4XqXuX<XB 4X9Xg.0X0XtX_.R qX|.k _ +X{.sXsXsX",
"sXsX9.D.&.@.s.`.V 4X5XpX0X0X`.v.R.@X2XtXyX0X4Xn E.I 4X8XiX0X9XR.v.-X3XeXpX9X9XK -X0XR.d -.8.J.q.sXsX",
"sXy.w.Z.$.A W.a.j.uXeXtX*XOX-Xk.`.8XyX9X0XT.8XY a.Q.iXeXeX@X*XOXg.2XuX0XyXT.4XT.`.*XT.d _ -.).B.D.sX",
"sXA. .B.>.L h Z 9X0Xj.Q.0X0X-XR.=XtX|.R.1XtX4X~.Q.tXqXj._.9X8X*X~.8X<XR.#XtX8XOX|.4Xp a _ s 1.Z.e.sX",
"sXsX} y.7.z ` ` <X0XuXqX8X+Xb E _.4XpXtX2X0Xm P P 3XuXuX5X9XR.n R *XpXyX2XtXK N R 8Xs a Q.G.V.J.sXsX",
"sXsXsX1.s.#._ S -X3XtXyX8X-X<X}.Y 6X8XuX8X0X@X4XH <X2XtXuX9X*X4X`.-X3XyX0XtX@X4XT.E.P s p.>.sXsXsXsX",
"sXsXsX6.3.K l a.3X/.iXuXuX4XuX=X}.^.3XpXtXtX8XuXh.<X~.uXuXiX2XpX<XOX$XpXuXuX<XpX`.Z #Xb.;.J.C.sXsXsX",
"sXsXH.x.z.f.k <XtXh.qX4XtXoX-XtXyX@X@X3XtXtX~.uX+X6Xh.8XqXpX@X4XyX-XR.6X0XpX/.0X1Xc.m S #.;.5.2.sXsX",
"x.K.K.Q / o.o.Y.I.P 2XP.( ~ ) rX$Xc Y.oXuXuXg.-X`.I.+.2X3XuX*Xh.5XP Q.9X0XrXT.`.3X9XS x t t ^ O.O.o.",
"Q ^ 8 < 8 W ! ~ 0 0 w ! e ! ! ! u u e r U.P.( / / e u ) ) oXqXT -Xk.$X>XP.! u ) / / 0 8 r e w w ! Q ",
"! * # 5 5 # $ # + 4 # # $ % : & 7 < * < r 7 < < 1 7 7 7 0 u L.x I.+.u w r r 7 = * = @ 2 O O = o > 6 ",
"6 = = O   # 2 : = - X - @ $ # O + = = # O . 2 2 : = % o : < 9 9 9 8 7 > $ O . $ 2 = = = X 2 $ @ * , ",
",   + : $ # + O #   O - = @ - = X O . = : o % X @ X X O : # = : = & X X @ : O % o @ O . o 2 @ $ : 9 ",
"W - O O -   2 > = : % - + + + o 2 : @ O = + + 2 ; % : % = o = o = 3 3 = o @ = X 2 = % 2 $ = o @ & 6 "
};
