/* XPM */
static char *result[] = {
/* columns rows colors chars-per-pixel */
"35 42 130 2 ",
"   c #F54902",
".  c #F05E04",
"X  c #EC5D14",
"o  c #F55F10",
"O  c #EE6206",
"+  c #E3660D",
"@  c #EC670A",
"#  c #E86D0A",
"$  c #F06603",
"%  c #F96607",
"&  c #F46C04",
"*  c #FC6D02",
"=  c #F16608",
"-  c #F36C0A",
";  c #EE7406",
":  c #EE7807",
">  c #E4730B",
",  c #EC7D0C",
"<  c #F47202",
"1  c #FB7504",
"2  c #F67B04",
"3  c #FB7C04",
"4  c #F4730C",
"5  c #FB750C",
"6  c #F4790B",
"7  c #FB7A0C",
"8  c #EB6314",
"9  c #ED6E12",
"0  c #E46F1E",
"q  c #EE6B1A",
"w  c #F06510",
"e  c #F66A12",
"r  c #E27214",
"t  c #EE7912",
"y  c #E87319",
"u  c #F17314",
"i  c #FB7015",
"p  c #F37B12",
"a  c #FA7C13",
"s  c #F0701C",
"d  c #F27A1E",
"f  c #DA5F27",
"g  c #F17520",
"h  c #F37B20",
"j  c #ED8007",
"k  c #F58203",
"l  c #FC8304",
"z  c #F48B06",
"x  c #FB8C03",
"c  c #F4840B",
"v  c #F9850A",
"b  c #F58D0C",
"n  c #FA8C0B",
"m  c #F59304",
"M  c #FC9303",
"N  c #FC9C03",
"B  c #F6930E",
"V  c #F9940D",
"C  c #F79A0C",
"Z  c #FD9B0A",
"A  c #E88315",
"S  c #E8831F",
"D  c #F58513",
"F  c #FC8316",
"G  c #F48B14",
"H  c #FC8C14",
"J  c #F7841C",
"K  c #F58D19",
"L  c #FC8B1C",
"P  c #ED9515",
"I  c #EF9810",
"U  c #F59313",
"Y  c #FB9314",
"T  c #F39B14",
"R  c #FC9A12",
"E  c #FC941D",
"W  c #F59A18",
"Q  c #FA9A1A",
"!  c #FDA302",
"~  c #FEAB03",
"^  c #F7A10B",
"/  c #FAA10C",
"(  c #FEA808",
")  c #FEB504",
"_  c #FFBB05",
"`  c #FEB50C",
"'  c #FFBB0A",
"]  c #EFA317",
"[  c #F3A513",
"{  c #FDA212",
"}  c #F4A916",
"|  c #FFAF12",
" . c #FCA21A",
".. c #F1AD19",
"X. c #FEAF19",
"o. c #FDB214",
"O. c #FEBC12",
"+. c #FEB018",
"@. c #F58424",
"#. c #FC8327",
"$. c #F58921",
"%. c #FC8B23",
"&. c #F48929",
"*. c #FD8B2B",
"=. c #FC9322",
"-. c #FB9A20",
";. c #F7952B",
":. c #FEBE2B",
">. c #FFA732",
",. c #FEA833",
"<. c #FFC704",
"1. c #FFCF06",
"2. c #FFC50E",
"3. c #FFCD0F",
"4. c #FFD706",
"5. c #FFC514",
"6. c #FFCB15",
"7. c #FFC21B",
"8. c #FFCB1E",
"9. c #FFD614",
"0. c #FFD01C",
"q. c #FFC223",
"w. c #FFC924",
"e. c #FFC62D",
"r. c #FFCD2A",
"t. c #FFD123",
"y. c #FFD028",
"u. c #FFCD35",
"i. c #FFCA39",
"p. c None",
/* pixels */
"p.p.p.p.p.p.p.p.p.p.p.p.p.p.p.p.p.p.p.p.p.p.p.p.p.p.p.p.p.p.p.p.p.p.p.",
"p.p.p.p.p.p.p.p.p.p.p.p.p.p.p.p.p.p.p.p.p.p.p.p.p.p.p.p.p.p.p.p.p.p.p.",
"p.p.p.p.p.p.p.p.p.p.p.p.p.p.p.p.p.p.p.p.p.p.p.p.p.p.p.p.p.p.p.p.p.p.p.",
"p.p.p.p.p.p.p.p.p.p.p.p.p.p.p.p.p.p.p.p.p.p.p.p.p.p.p.p.p.p.p.p.p.p.p.",
"p.p.p.p.p.p.p.p.p.p.p.p.p.p.p.p.p.p.p.p.p.p.p.p.p.p.p.p.p.p.p.p.p.p.p.",
"p.p.p.p.p.p.p.p.p.p.p.p.p.p.p.p.p.p.p.p.p.p.p.p.p.p.p.p.p.p.p.p.p.p.p.",
"p.p.p.p.p.p.p.p.p.p.p.p.p.p.p.p.p.p.p.p.p.p.p.p.p.p.p.p.p.p.p.p.p.p.p.",
"p.p.p.p.p.p.p.p.p.p.p.p.p.p.p.*.p.p.;.p.p.p.p.p.p.p.p.p.p.p.p.p.p.p.p.",
"p.p.p.p.p.p.p.p.p.p.p.p.p.p.p.*.*.p.$.&.p.p.p.p.p.p.p.p.p.p.p.p.p.p.p.",
"p.p.p.p.p.p.p.p.p.p.p.p.p.p.p.*.*.p.K g @.p.p.p.p.p.p.p.p.p.p.p.p.p.p.",
"p.p.p.p.p.p.p.p.p.p.p.p.p.p.%.*.#.p.Y q q p.p.p.p.p.p.p.p.p.p.p.p.p.p.",
"p.p.p.p.p.p.p.p.>.p.p.p.p.p.=.*.p.p.Q h 8 X p.p.p.p.p.p.p.p.p.p.p.p.p.",
"p.p.p.p.p.p.p.p.,.p.p.p.p.%.=.=.p.Y -.@.q 8 p.p.p.p.p.p.p.p.p.p.p.p.p.",
"p.p.p.p.p.p.p.p.p.p.p.p.p.%.=.E D E E %.d 9 m ! p.p.p.p.p.p.p.p.p.p.p.",
"p.p.p.p.p.p.p.p.p.p.p.p.i %.E Y H H E %.J u l M N Y p.p.p.p.p.p.p.p.p.",
"p.p.p.p.p.p.p.p.p.p.p.p.H R Y Y Y H L L F p 3 x M H H p.p.p.p.p.p.p.p.",
"p.p.p.p.p.p.p.p.@.o   p./ R R R R F F L F u - & 3 v H p.p.p.p.p.p.p.p.",
"p.p.p.p.p.p.p.p.J e % Z Z R Z R  .H 5 F a - = . & 6 F p.p.p.p.p.p.p.p.",
"p.p.p.p.p.p.p.D L a v Z n Z Z  . .J u 7 7 - % - 3 1 i p.p.p.p.p.p.p.p.",
"p.p.p.p.p.p.p.D K D H M n Z / X.W p 4 5 7 - & v l 3 1 p.p.p.p.p.p.p.p.",
"p.p.p.p.p.p.p.G Y G V V v Z o.o.D t ; 4 7 & 3 M x 3 1 p.p.p.p.p.p.p.p.",
"p.p.p.p.p.p.p.H T K U V n Z O.o.D , : 6 l < l N M l 7 p.n Z p.p.p.p.p.",
"p.p.p.p.p.p.p.V U K B V n N O.` b j k N m 2 x N l 3 l 7 l Z p.p.p.p.p.",
"p.p.p.p.p.p.p.U K D c Z n N ' 2.` C ~ ) m l M M l * 3 3 x N p.p.p.p.p.",
"p.p.p.p.p.U U U G G t z x N ' 3.9.6.2.' N M m x l * 1 l M ~ p.p.p.p.p.",
"p.p.p.p.p.R U V G U 6 v M ( 2.6.8.t.0.5._ ) ! N M 3 1 l ! N p.p.p.p.p.",
"p.p.p.p.p.C U V b B b v ( _ 5.8.e.e.q.O.) ! N N N M x x Z 2 p.p.p.p.p.",
"p.p.p.p.p./ V B n b ^ / ) 4.6.w.i.i.:.X.N m l k 3 l x N l - p.p.p.p.p.",
"p.p.p.p.p.[ Z v z x m ) 4.4.9.t.u.u.e.X.Z x k 2 < 1 l M 3 w p.p.p.p.p.",
"p.p.p.p.p.W / m x x x ! _ <.3.8.y.r.q.| N x 2 ; & & 2 v 6 p.p.p.p.p.p.",
"p.p.p.p.p.p.C ( N M N N ! ~ ' O.7.7.5.` ~ M k & $ $ O 4 u p.p.p.p.p.p.",
"p.p.p.p.p.p.D ! ) ~ N ~ ! ! N ( ` ` ` _ ) ~ M 2 & O p.8 q p.p.p.p.p.p.",
"p.p.p.p.p.p.p.v ! ~ ~ ~ ~ N M m m ! ~ ) ~ ~ m k 6 # p.p.p.p.p.p.p.p.p.",
"p.p.p.p.p.p.p.5 x M N ! ~ ! N x k c m ! ! C B 6 6 p.p.p.p.p.p.p.p.p.p.",
"p.p.p.p.p.p.p.p.7 l x m m N N M k ; < z C b t r 0 p.p.p.p.p.p.p.p.p.p.",
"p.p.p.p.p.p.p.p.p.p c c m m m z j # + A ^ P 0 f p.p.p.p.p.p.p.p.p.p.p.",
"p.p.p.p.p.p.p.p.p.p.p.G I [ I , > + r I [ [ S p.p.p.p.p.p.p.p.p.p.p.p.",
"p.p.p.p.p.p.p.p.p.p.p.p.p...] A r r P ] } p.p.p.p.p.p.p.p.p.p.p.p.p.p.",
"p.p.p.p.p.p.p.p.p.p.p.p.p.p.p.p.p.p.p.p.p.p.p.p.p.p.p.p.p.p.p.p.p.p.p.",
"p.p.p.p.p.p.p.p.p.p.p.p.p.p.p.p.p.p.p.p.p.p.p.p.p.p.p.p.p.p.p.p.p.p.p.",
"p.p.p.p.p.p.p.p.p.p.p.p.p.p.p.p.p.p.p.p.p.p.p.p.p.p.p.p.p.p.p.p.p.p.p.",
"p.p.p.p.p.p.p.p.p.p.p.p.p.p.p.p.p.p.p.p.p.p.p.p.p.p.p.p.p.p.p.p.p.p.p."
};
