/* XPM */
static char *result[] = {
/* columns rows colors chars-per-pixel */
"60 50 131 2 ",
"   c #010201",
".  c #060807",
"X  c #080807",
"o  c #070909",
"O  c #0C0D0D",
"+  c #13120D",
"@  c #0C0F11",
"#  c #0E1111",
"$  c #111414",
"%  c #1B1712",
"&  c #1E1B13",
"*  c #16191C",
"=  c #1D1E1C",
"-  c #211F1A",
";  c #242016",
":  c #20211D",
">  c #2A251B",
",  c #1A1E21",
"<  c #1C2123",
"1  c #1E232A",
"2  c #252624",
"3  c #272823",
"4  c #2A2A27",
"5  c #24272A",
"6  c #252B2F",
"7  c #2D2E2B",
"8  c #2F302F",
"9  c #30302C",
"0  c #282F33",
"q  c #293134",
"w  c #2D343A",
"e  c #343433",
"r  c #393937",
"t  c #36383A",
"y  c #3A3B3A",
"u  c #41423F",
"i  c #343C43",
"p  c #383F47",
"a  c #394347",
"s  c #3B464C",
"d  c #3D494E",
"f  c #3E4755",
"g  c #3F4A51",
"h  c #434342",
"j  c #494947",
"k  c #4C4D4C",
"l  c #414D54",
"z  c #455056",
"x  c #4F5150",
"c  c #47515E",
"v  c #48565C",
"b  c #545554",
"n  c #585857",
"m  c #565858",
"M  c #5B5C5B",
"N  c #475460",
"B  c #4F5B60",
"V  c #5F6160",
"C  c #55646D",
"Z  c #5D6468",
"A  c #5B686F",
"S  c #576571",
"D  c #5D6B74",
"F  c #5D6D7D",
"G  c #646463",
"H  c #676969",
"J  c #686968",
"K  c #6F7171",
"L  c #63747F",
"P  c #737473",
"I  c #767A7B",
"U  c #7A7C7C",
"Y  c #647485",
"T  c #667984",
"R  c #697C87",
"E  c #6B7E8A",
"W  c #757F84",
"Q  c #787F82",
"!  c #778C99",
"~  c #7A8F9B",
"^  c #7B919D",
"/  c #7F96A3",
"(  c #858585",
")  c #878887",
"_  c #888887",
"`  c #878988",
"'  c #8C8D8D",
"]  c #869197",
"[  c #80929C",
"{  c #8B999F",
"}  c #909291",
"|  c #9C9D9D",
" . c #8397A2",
".. c #8598A3",
"X. c #859DAB",
"o. c #929EA3",
"O. c #9AA2A5",
"+. c #8BA4B3",
"@. c #8EA8B6",
"#. c #8EA9B9",
"$. c #90A6B6",
"%. c #93ADBB",
"&. c #9BB0BD",
"*. c #A2A3A3",
"=. c #ABACAC",
"-. c #A1ACB2",
";. c #B3B4B4",
":. c #BBBBBB",
">. c #96B1C2",
",. c #9AB5C5",
"<. c #9BB6C8",
"1. c #9EBACB",
"2. c #A3BDCD",
"3. c #BAC5CB",
"4. c #AAC2D0",
"5. c #B0C6D2",
"6. c #BDCDD6",
"7. c gray76",
"8. c #C3CACE",
"9. c #CCCDCD",
"0. c #C2CED4",
"q. c #C8CFD4",
"w. c #CCD3D6",
"e. c #C5D2D9",
"r. c #D3D4D3",
"t. c #D4D8DB",
"y. c #DBDBDB",
"u. c #DCDFE1",
"i. c #DDE0E2",
"p. c #E5E5E5",
"a. c None",
/* pixels */
"a.a.a.a.a.a.a.a.a.a.a.a.a.a.a.a.a.a.a.a.a.a.a.a.a.a.a.a.a.a.a.a.a.a.a.a.a.a.a.a.a.a.a.a.a.a.a.a.a.a.a.a.a.a.a.a.a.a.a.a.",
"a.a.a.a.a.a.a.a.a.a.a.a.a.a.a.a.a.a.a.a.a.a.a.a.a.a.a.a.a.a.a.a.a.a.a.a.a.a.a.a.a.a.a.a.a.a.a.a.a.a.a.a.a.a.a.a.a.a.a.a.",
"a.a.a.a.a.a.a.a.a.a.a.a.a.a.a.a.a.a.a.a.a.a.a.a.a.a.a.a.a.a.a.a.a.a.a.a.a.a.a.a.a.a.a.a.a.a.a.a.a.a.a.a.a.a.a.a.a.a.a.a.",
"a.a.a.a.a.a.a.a.a.a.a.a.a.a.a.a.a.a.a.a.a.a.a.a.a.a.a.a.a.a.a.a.a.a.a.a.a.a.a.a.a.a.a.a.a.a.a.a.a.a.a.a.a.a.a.a.a.a.a.a.",
"a.a.a.a.a.a.a.a.a.a.a.a.a.a.a.a.a.a.a.a.a.a.a.a.a.a.a.a.a.a.a.a.a.a.a.a.a.a.a.a.a.a.a.a.a.a.a.a.a.a.a.a.a.a.a.a.a.a.a.a.",
"a.a.a.a.a.a.a.a.a.a.a.a.a.a.a.a.a.a.a.a.a.a.a.a.a.a.a.a.a.a.a.a.a.a.a.a.a.a.a.a.a.a.a.a.a.a.a.a.a.a.a.a.a.a.a.a.a.a.a.a.",
"a.a.a.a.a.a.a.a.a.a.a.a.a.a.a.a.a.a.a.a.a.a.a.a.a.a.a.a.a.a.a.a.a.a.a.a.a.a.a.a.a.a.a.a.a.a.a.a.a.a.a.a.a.a.a.a.a.a.a.a.",
"a.a.a.a.a.a.a.a.a.a.a.a.a.a.a.a.a.a.a.a.a.a.a.a.a.a.a.a.a.a.a.a.a.a.a.a.a.a.a.a.a.a.a.a.a.a.a.a.a.a.a.a.a.a.a.a.a.a.a.a.",
"a.a.a.a.a.a.a.a.a.a.a.a.a.a.a.a.a.a.a.a.a.a.a.a.a.# x U } | ' I k $   a.a.a.a.a.a.a.a.a.a.a.a.a.a.a.a.a.a.a.a.a.a.a.a.a.",
"a.a.a.a.a.a.a.a.a.a.a.a.a.a.a.a.a.a.a.a.a.a.a.  m y.p.p.p.p.p.p.p.p.' o a.a.a.a.a.a.a.a.a.a.a.a.a.a.a.a.a.a.a.a.a.a.a.a.",
"a.a.a.a.a.a.a.a.a.a.a.a.a.a.a.a.a.a.a.a.a.a.a.g i.p.p.p.p.p.p.p.p.p.p.(   a.a.a.a.a.a.a.a.a.a.a.a.a.a.a.a.a.a.a.a.a.a.a.",
"a.a.a.a.a.a.a.a.a.a.a.a.a.a.a.a.a.a.a.a.a.a., <.p.p.p.p.p.p.p.p.p.p.p.p.2 a.a.a.a.a.a.a.a.a.a.a.a.a.a.a.a.a.a.a.a.a.a.a.",
"a.a.a.a.a.a.a.a.a.a.a.a.a.a.a.a.a.a.a.a.a.  T &.p.p.p.p.p.p.p.p.p.p.p.p.`   a.a.a.a.a.a.a.a.a.a.a.a.a.a.a.a.a.a.a.a.a.a.",
"a.a.a.a.a.a.a.a.a.a.a.a.a.a.a.a.a.a.a.a.a.. ,.+.p.p.p.:.h h 7.p.p.p.9.G *.. a.a.a.a.a.a.a.a.a.a.a.a.a.a.a.a.a.a.a.a.a.a.",
"a.a.a.a.a.a.a.a.a.a.a.a.a.a.a.a.a.a.a.a.a.< 1. .p.p.p.9 7 9 r p.p.p.b 7 4 r a.a.a.a.a.a.a.a.a.a.a.a.a.a.a.a.a.a.a.a.a.a.",
"a.a.a.a.a.a.a.a.a.a.a.a.a.a.a.a.a.a.a.a.a.q 1.^ p.p.r.9 k r & i.p.p.u r : x a.a.a.a.a.a.a.a.a.a.a.a.a.a.a.a.a.a.a.a.a.a.",
"a.a.a.a.a.a.a.a.a.a.a.a.a.a.a.a.a.a.a.a.a.s 1.^ p.p.p.r m k 8 p.p.p.x b - _   a.a.a.a.a.a.a.a.a.a.a.a.a.a.a.a.a.a.a.a.a.",
"a.a.a.a.a.a.a.a.a.a.a.a.a.a.a.a.a.a.a.a.a.C 1.[ p.p.p.*.r r =.p.p.p.*.e P ;.  a.a.a.a.a.a.a.a.a.a.a.a.a.a.a.a.a.a.a.a.a.",
"a.a.a.a.a.a.a.a.a.a.a.a.a.a.a.a.a.a.a.a.  ~ 2.{ p.p.p.p.p.p.p.p.p.p.p.p.p.7.  a.a.a.a.a.a.a.a.a.a.a.a.a.a.a.a.a.a.a.a.a.",
"a.a.a.a.a.a.a.a.a.a.a.a.a.a.a.a.a.a.a.a.@ ,.1.O.p.p.=.` 9.| ( ( _ _ _ *.| *.  a.a.a.a.a.a.a.a.a.a.a.a.a.a.a.a.a.a.a.a.a.",
"a.a.a.a.a.a.a.a.a.a.a.a.a.a.a.a.a.a.a.a.l 1.,.;.p.p.K k M e b x x u 7 3 - I   a.a.a.a.a.a.a.a.a.a.a.a.a.a.a.a.a.a.a.a.a.",
"a.a.a.a.a.a.a.a.a.a.a.a.a.a.a.a.a.a.a.  X.1.[ i.p.p.=.u e j m m n u 9 > $ |   a.a.a.a.a.a.a.a.a.a.a.a.a.a.a.a.a.a.a.a.a.",
"a.a.a.a.a.a.a.a.a.a.a.a.a.a.a.a.a.a.a.v 1.1.-.p.p.p.p.x x b m b n e 9 7 b ' a.a.a.a.a.a.a.a.a.a.a.a.a.a.a.a.a.a.a.a.a.a.",
"a.a.a.a.a.a.a.a.a.a.a.a.a.a.a.a.a.a.6 ,.1.,.0.p.p.p.p.t.b h n b j 9 4 r r.m a.a.a.a.a.a.a.a.a.a.a.a.a.a.a.a.a.a.a.a.a.a.",
"a.a.a.a.a.a.a.a.a.a.a.a.a.a.a.a.a.6 ! v T <.2.p.p.p.p.p.p.=.J b h j ( y.y.O a.a.a.a.a.a.a.a.a.a.a.a.a.a.a.a.a.a.a.a.a.a.",
"a.a.a.a.a.a.a.a.a.a.a.a.a.a.a.a.  o   O #.#.~ 2.p.p.p.p.p.p.p.p.p.p.p.p.U   a.a.a.a.a.a.a.a.a.a.a.a.a.a.a.a.a.a.a.a.a.a.",
"a.a.a.a.a.a.a.a.a.a.a.a.a.a.a.a.a.a.  a i . / 6.p.r.=.p.p.i.p.t.U p.p.3.# a.a.a.a.a.a.a.a.a.a.a.a.a.a.a.a.a.a.a.a.a.a.a.",
"a.a.a.a.a.a.a.a.a.a.a.a.a.a.a.a.a.        g 4.9.o.A O.q.p.o.8.....p.e.a a.a.a.a.a.a.a.a.a.a.a.a.a.a.a.a.a.a.a.a.a.a.a.a.",
"a.a.a.a.a.a.a.a.a.a.a.a.a.a.a.a.a.a.a.a., >.&.@.%.l +.o.U <...R %.6.C   h ' 7   a.a.a.a.      X   a.a.a.a.a.a.a.a.a.a.a.",
"a.a.a.a.a.a.a.a.a.a.a.a.a.a.a.a.a.a.a.@ X.1.~ g o # F I U B O E 1.S     P Z * ] 2   X % o , & ; . a.a.a.a.a.a.a.a.a.a.a.",
"a.a.a.a.a.a.a.a.a.a.a.a.a.a.a.a.a.a.  i s $   a.a.z s u.p.i.M X.h     $ C @.6 x ; > ; + . 7 .   a.a.a.a.a.a.a.a.a.a.a.a.",
"a.a.a.a.a.a.a.a.a.a.a.a.a.a.a.a.a.a.  a.a.a.a.a.  E s u.p.p.H $ O - > - o.*.K r.. a.a.  < i f @ a.a.a.a.a.a.a.a.a.a.a.a.",
"a.a.a.a.a.a.a.a.a.a.a.a.a.a.a.a.a.a.a.a.a.a.a.a.    < 4.p.p.M > & O     G e j r   a.a.  5 p Y , a.a.a.a.a.a.a.a.a.a.a.a.",
"a.a.a.a.a.a.a.a.a.a.a.a.a.a.a.a.a.a.a.a.a.a.a.a.a.  + L 0.w.W   a.a.a.a.a.a.a.a.a.a.a.  6 N +.0 a.a.a.a.a.a.a.a.a.a.a.a.",
"a.a.a.a.a.a.a.a.a.a.a.a.a.a.a.a.a.a.a.a.a.a.a.a.a.a.a.a.1 d t a.a.a.a.a.a.a.a.a.a.a.a.  p Y X.* a.a.a.a.a.a.a.a.a.a.a.a.",
"a.a.a.a.a.a.a.a.a.a.a.a.a.a.a.a.a.a.a.a.a.a.a.a.a.a.a.a.a.a.a.a.a.a.a.a.a.a.a.a.a.a.a.  i S Y   a.a.a.a.a.a.a.a.a.a.a.a.",
"a.a.a.a.a.a.a.a.a.a.a.a.a.a.a.a.a.a.a.a.a.a.a.a.a.a.a.a.a.a.a.a.a.a.a.a.a.a.a.a.a.a.a.  i Y D   a.a.a.a.a.a.a.a.a.a.a.a.",
"a.a.a.a.a.a.a.a.a.a.a.a.a.a.a.a.a.a.a.a.a.a.a.a.a.a.a.a.a.a.a.a.a.a.a.a.a.a.a.a.a.a.a., F +., a.a.a.a.a.a.a.a.a.a.a.a.a.",
"a.a.a.a.a.a.a.a.a.a.a.a.a.a.a.a.a.a.a.a.a.a.a.a.a.a.a.a.a.a.a.a.a.a.a.a.a.a.a.a.a.a.  f E p   a.a.a.a.a.a.a.a.a.a.a.a.a.",
"a.a.a.a.a.a.a.a.a.a.a.a.a.a.a.a.a.a.a.a.a.a.a.a.a.a.a.a.a.a.a.a.a.a.a.a.a.a.a.a.a.  , c w   a.a.a.a.a.a.a.a.a.a.a.a.a.a.",
"a.a.a.a.a.a.a.a.a.a.a.a.a.a.a.a.a.a.a.a.a.a.a.a.a.a.a.a.a.a.a.a.a.a.a.a.a.a.a.a.  @ i ,   a.a.a.a.a.a.a.a.a.a.a.a.a.a.a.",
"a.a.a.a.a.a.a.a.a.a.a.a.a.a.a.a.a.a.a.a.a.a.a.a.a.a.a.a.a.a.a.a.a.a.a.a.a.a.a.    @   a.a.a.a.a.a.a.a.a.a.a.a.a.a.a.a.a.",
"a.a.a.a.a.a.a.a.a.a.a.a.a.a.a.a.a.a.a.a.a.a.a.a.a.a.a.a.a.a.a.a.a.a.a.a.a.a.      a.a.a.a.a.a.a.a.a.a.a.a.a.a.a.a.a.a.a.",
"a.a.a.a.a.a.a.a.a.a.a.a.a.a.a.a.a.a.a.a.a.a.a.a.a.a.a.a.a.a.a.a.a.a.a.a.a.a.a.a.a.a.a.a.a.a.a.a.a.a.a.a.a.a.a.a.a.a.a.a.",
"a.a.a.a.a.a.a.a.a.a.a.a.a.a.a.a.a.a.a.a.a.a.a.a.a.a.a.a.a.a.a.a.a.a.a.a.a.a.a.a.a.a.a.a.a.a.a.a.a.a.a.a.a.a.a.a.a.a.a.a.",
"a.a.a.a.a.a.a.a.a.a.a.a.a.a.a.a.a.a.a.a.a.a.a.a.a.a.a.a.a.a.a.a.a.a.a.a.a.a.a.a.a.a.a.a.a.a.a.a.a.a.a.a.a.a.a.a.a.a.a.a.",
"a.a.a.a.a.a.a.a.a.a.a.a.a.a.a.a.a.a.a.a.a.a.a.a.a.a.a.a.a.a.a.a.a.a.a.a.a.a.a.a.a.a.a.a.a.a.a.a.a.a.a.a.a.a.a.a.a.a.a.a.",
"a.a.a.a.a.a.a.a.a.a.a.a.a.a.a.a.a.a.a.a.a.a.a.a.a.a.a.a.a.a.a.a.a.a.a.a.a.a.a.a.a.a.a.a.a.a.a.a.a.a.a.a.a.a.a.a.a.a.a.a.",
"a.a.a.a.a.a.a.a.a.a.a.a.a.a.a.a.a.a.a.a.a.a.a.a.a.a.a.a.a.a.a.a.a.a.a.a.a.a.a.a.a.a.a.a.a.a.a.a.a.a.a.a.a.a.a.a.a.a.a.a.",
"a.a.a.a.a.a.a.a.a.a.a.a.a.a.a.a.a.a.a.a.a.a.a.a.a.a.a.a.a.a.a.a.a.a.a.a.a.a.a.a.a.a.a.a.a.a.a.a.a.a.a.a.a.a.a.a.a.a.a.a."
};
