/* XPM */
static char *result[] = {
/* columns rows colors chars-per-pixel */
"50 60 212 2 ",
"   c #3E352F",
".  c #3E3530",
"X  c #453B34",
"o  c #483E37",
"O  c #4A3F38",
"+  c #403731",
"@  c #4C413A",
"#  c #4E4135",
"$  c #51453D",
"%  c #55493C",
"&  c #5B4A3A",
"*  c #64523C",
"=  c #614F3D",
"-  c #7D633F",
";  c #534740",
":  c #554A42",
">  c #594D45",
",  c #5E5149",
"<  c #5D5047",
"1  c #62554C",
"2  c #66584D",
"3  c #685847",
"4  c #765F43",
"5  c #6B5D53",
"6  c #675A51",
"7  c #7B6449",
"8  c #716357",
"9  c #6B6156",
"0  c #876A3F",
"q  c #A17F3E",
"w  c #FD7811",
"e  c #826642",
"r  c #836A4B",
"t  c #896D49",
"y  c #937245",
"u  c #9C7A44",
"i  c #95754C",
"p  c #9C7A4A",
"a  c #987A53",
"s  c #8F7658",
"d  c #A27D4B",
"f  c #A67F46",
"g  c #A27F50",
"h  c #B68B3C",
"j  c #FD850D",
"k  c #FD8B0C",
"l  c #FD940C",
"z  c #FD9B0A",
"x  c #FD8B13",
"c  c #F78A13",
"v  c #E89918",
"b  c #FD9211",
"n  c #FD9D11",
"m  c #FD971B",
"M  c #FEA407",
"N  c #FEAB06",
"B  c #FEA30B",
"V  c #FEAB09",
"C  c #FEB406",
"Z  c #FEB30A",
"A  c #FEBC0C",
"S  c #FEBC07",
"D  c #FEA312",
"F  c #FEAB11",
"G  c #FEAB1A",
"H  c #FEA01A",
"J  c #FEB311",
"K  c #FEBD14",
"L  c #FEBC1C",
"P  c #CD8F36",
"I  c #DDA53B",
"U  c #FEAB24",
"Y  c #FEB522",
"T  c #FEBC24",
"R  c #FEB42D",
"E  c #FEBE2A",
"W  c #FEA731",
"Q  c #FEB934",
"!  c #E2AE2B",
"~  c #FEC304",
"^  c #FFCB05",
"/  c #FEC20C",
"(  c #FFCB0B",
")  c #FFD308",
"_  c #FEC414",
"`  c #FFCD13",
"'  c #FEC31B",
"]  c #FECB1C",
"[  c #FFD314",
"{  c #FFD41B",
"}  c #FFDC1C",
"|  c #FFDC16",
" . c #FEC523",
".. c #FECA24",
"X. c #FDC52A",
"o. c #FFCB2B",
"O. c #FFD323",
"+. c #FFDC25",
"@. c #FFD52B",
"#. c #FFDA2C",
"$. c #FEC533",
"%. c #FECC35",
"&. c #FEC53C",
"*. c #FDCD3A",
"=. c #FFD333",
"-. c #FFDB34",
";. c #FFD43A",
":. c #FFDD3B",
">. c #FFE42D",
",. c #FFE626",
"<. c #FFE335",
"1. c #FFE33D",
"2. c #FFEC3B",
"3. c #A6814D",
"4. c #AD874D",
"5. c #A98146",
"6. c #B28B4D",
"7. c #BA934D",
"8. c #A68452",
"9. c #A88451",
"0. c #B48E57",
"q. c #B59256",
"w. c #B99659",
"e. c #BC9B64",
"r. c #BA9661",
"t. c #D09747",
"y. c #DBAE53",
"u. c #FEBB4A",
"i. c #CDAB6D",
"p. c #C7AD76",
"a. c #FECD45",
"s. c #FECD4E",
"d. c #FEC74A",
"f. c #FFD443",
"g. c #FFDD43",
"h. c #FED24C",
"j. c #FFDD4B",
"k. c #FCCD57",
"l. c #FED652",
"z. c #FFDD55",
"x. c #FFDA5C",
"c. c #FED15C",
"v. c #EDCD4A",
"b. c #FFE344",
"n. c #FFEA45",
"m. c #FFE34C",
"M. c #FFEB4C",
"N. c #FFE454",
"B. c #FFEB54",
"V. c #FFE45C",
"C. c #FFEC5B",
"Z. c #FFF65B",
"A. c #FFF144",
"S. c #FFDD62",
"D. c #FCD76A",
"F. c #FFDC76",
"G. c #EAD670",
"H. c #FFE563",
"J. c #FFEB63",
"K. c #FFE56C",
"L. c #FFEC6B",
"P. c #FFF362",
"I. c #FFF46C",
"U. c #FFE473",
"Y. c #FFEC73",
"T. c #FFE77F",
"R. c #FFED7C",
"E. c #FFF273",
"W. c #FFF37C",
"Q. c #FFF979",
"!. c #CBB282",
"~. c #FED782",
"^. c #F1D995",
"/. c #FFEB83",
"(. c #FFED8B",
"). c #FCE489",
"_. c #FFF383",
"`. c #FFFA84",
"'. c #FFF48C",
"]. c #FFFA8C",
"[. c #FFED93",
"{. c #FFEF9D",
"}. c #F6EB9F",
"|. c #FFF494",
" X c #FFFA95",
".X c #FFF59B",
"XX c #FFFA9C",
"oX c #CCC2A0",
"OX c #EDDBA6",
"+X c #E7DAB0",
"@X c #FFF5A4",
"#X c #FFFBA4",
"$X c #FFF4AB",
"%X c #FFFBAB",
"&X c #FFF5B4",
"*X c #FFFBB4",
"=X c #FFF6BC",
"-X c #FFFCBC",
";X c #F7F1BD",
":X c #F7E9AE",
">X c #FFF6C4",
",X c #FFFCC3",
"<X c #FFFDCB",
"1X c #FFF6C9",
"2X c #FFFED4",
"3X c #FFFEDB",
"4X c #F9F3D7",
"5X c #FFFFE3",
"6X c #FFFFEB",
"7X c #FFFFF2",
"8X c #FFFFF9",
"9X c None",
/* pixels */
"9X9X9X9X$.l.l A.,.3X7X5X%X6X6X<X,._.8X5X3X,X5X6XI.2.5X7X5X#X6X6X%X9X8X5X6X%X6X6X'.9X9X9X9X9X9X9X9X9X",
"9X9X9X9Xg.G U %X' *X2X#X6X2X-X3Xg.z.7XXX5X5X,X<X*X_ 2X<X#X6X2X-X6Xs.6X%X-X6X<X-X6X<X|.z.V { 9X9X9X9X",
"9X9X9X9XY b z 3X<X'.6XZ.<X<X`.6X6X_.3X#X].5X`.<X7X=X.X6XZ.2X-X].5XN.-X-XI.6X X%X-X+.z.$XJ.E 9X9X9X9X",
"9X9X9X9X9XB _ U.6XC.3X%X,XP.3Xu.5X'.|.3X*XW.*X.X~.5XC.3X%X-XI.5XU H.R.3X%XXX].,XH /.W X._.N.V 9X9X9X",
"9X9XM 9Xz ^ ,X) _.2X<X#X,X*X6X|.N.,X<X2X].<X,X-X-.#X2X,X#X,X%X7X.X<X2X<X].3X*X3X|._.B.X.( @.B A 9X9X",
"9X9Xl B -.~  .T 3X7X5X6X<X3XXX*X-X7X7X5X3X5X#X%XN.7X7X5X6X2X2XXX*X3X7X5X5X5X*X#X$XB.'.J.N '.V 9Xx 9X",
"9X9XC z ] z M ] &X3XU.3XQ.5X,XL W.3X$X[.%X%X7Xk. .,X2XU.3X`.6X%XK @X1X/.2X].7X/.o.%X2XR Y '.Z l 9X9X",
"9X9X9Xk a.Y j.l.$.6X,X2XXX6X<XB.(.,X2X<X,X-X6XC.*.l.5X<X2X#X6X*Xm.*X3X<X2X#X8X_.L.<XH.B m.G g.9X9X9X",
"9X9X9X9Xh.Y f./.O.2X3X#X{.2X2XXX/.|.3X-X&X%X6XQ._.;.3X3X#X@X3X,X_.@X3X<X*X.X6X#X-X,Xb.M ] V 9X9X9X9X",
"9X9X9X9X$.B.S V *X2X5X6X-X6X.X;.K.<X6X3X3X2X2Xm.] ,X3X5X5X,X6X_.m.-X5X3X5X,X5XJ.K..Xz j 9XH.B 9X9X9X",
"9X9Xn.x $.g.^ / <X6X6X2XXX<Xb.W.E.6X3X7X|.5XJ.E.-.5X5X6X,X#X*Xb.@X5X5X7X X3X_.C.%X-XG z A A 9X~ 9X9X",
"9X9Xz X.} j C ) @X6X7X2X6X@XL.XXm.6X6X6X2X3XN.%X-.,X6X7X2X6X[.E.XX,X6X7X2X6XV. X X=XA +.b.%.k { b 9X",
"9X9XD L.m Q Z W.3X#X5X7X5X*X<X#X<X,X-X5X7X<X%X3X#X2X#X3X7X5X%X2X|.$X%X5X7X3XXX3XJ.#._.s.V @.9X9X9X9X",
"9X9X9XE.E A k x.2XH.<X3X5X-X-X-X<X(.|.<X7X5XXX3XXX<XH.<X5X5X%X,X-X'.U.<X6X5XXX2XXX<.C.f.C C 9X9X9X9X",
"9X9X9X9X*Xn Z `.*Xm.5X3X,X-XE.3X,XJ.@X3X3X3XB.2X-X#XV.3X3X,X#X_.3XL.R.5X2X<XE.*X,X*XO.D M g.9X9X9X9X",
"9X9X9Xx @.F ] C.E.H.5X6X6X5Xj.<X_.b.<X2X7X6X(.|.2XI.R.3X6X6X3Xb.5XJ..X3X7X6X&XK.5X.XO.j.l C V 9X9X9X",
"9X9X9XB J.b.:.-X#Xb.6X<X6X7XJ.'.,X:.,X2X5X6X,X>.3X'.C.6X2X5X7Xm.|.K.'.5X5X5X5X<.,X$XR N.m.l 9X=.9X9X",
"9X9XA N X.W.Y...b..X5X-X6X#XR.@X1.C.5X-X6X5XC.$X|.n.*X5X-X6X'.'.#XC.2X,X3X5XQ..X*X5X#X} X.k 9XZ 9X9X",
"9X9Xn 9X] N 1.Q.W.C.6X<X5X5X3X<X'.M.,X6X,X6X2X5X XJ.L.6X2X3X5X3X<XJ. X6X,X6X2X5X@XR.6XE 9X| 9X9X9X9X",
"9X9X9X9XX.O.|.|.6X%XN.-X2X7X3X3X,X3XN.@X%X7X3X6X*X&X|.V.-X2X6X3X6X2XW./.%X7X3X5X*XO.|.B a.R.M 9X9X9X",
"9X9X9X9XN .X7X&.F.2Xj.<X%XC.2X3XQ 2X/.T.<XJ.#X6X/.).,Xg.2X@XI.3X1X&X$XH.2X/.W.5X%X .J.-.J O.9X9X9X9X",
"9X9X9X9Xf.=X%.m.@.2X2X2X-X-X6X-X@.|.2X3X3X#X3X7XH.m.2X2X3X*X,X6X$XW.2X2X3X#X<X7XXX<X*X#.Z J _ 9X9X9X",
"9X9X9Xm m ' A R.$X6X=X3X3X-X6X<X#X3X3X>X3X-X2X7X%X-X6X&X3X2X-X7X<X2X6X=X3X<X,X7X%XS.*X:.W.V V 9X9X9X",
"9X9Xb #.9XB K.*X,X,X2X5X*X$X7X#Xj.<X,X5X<X.X5X<XL.,X-X2X6X*X=X6X X$X,X3X5X.X2X3X_.c.x.m.A A ( A 9X9X",
"9X( 9Xj 9X~.XXb.C.m.2X#X,X<X-XP.[.+.*X#X,X*X3XZ.|.m.K.<X#X-X2XXXI.:.|.*X*X*X3XE.'._.^ ^ } ~ B 9X9X9X",
"9X9XD A 9X$.XX%X` $X5X5X'.E.-X,X[.V.6X2X3Xn.-X*X,X[ <X5X5XW._.-X*XN.3X3X6Xn.#X-X3X2XE N ( 1.J 9X9X9X",
"9X9X9XO.M z d.@X] 5X,X%X3X-XE.'.[.{.5X X5X-X$Xb.*X=.6X*X*X3X-XL.R./.5X#X2X,X,XN.%X_._ | ^ =.9X9X9X9X",
"9X9X9X9Xl M x./.L 3X6X*X5X5X&X+.F.[.6X<X2X6X3X:.R.%.6X6X*X5X5X|.@./.6X2X,X5X5XH.C.( ^ XX>. .9X9X9X9X",
"9X9X9XK H X.*XU.@.<X3X|.3X7X(.J.x._.6X@X<X5X2Xb./.:.3X2X|.2X7XY.C.R.5X*X*X3X5XV.'.$X` ` b B.L 9X9X9X",
"9X9Xk j.d.' B.-X] &X3X7X3X5X-.'./.V.5X6X6X2X[.+.2X` 3X3X7X3X5X[ '.N.5X5X7X2X*X{ <X2X$.g.u.%.V.9X9X9X",
"9X9Xj ] / D.J.A D.5X>X3X'.<X'.<.).>X,X<X<X.X2X{ J.~.5X>X3X(.2XH.:.&X2X1X5XR.6X:.I.L :.L.a.E =.k 9X9X",
"9X9X9XV.=.W +.$.3X[.1X5X$X$X*X'.'.>X[.3X<X[.,X XL.6X/.2X3X$X&X*X'.<X/.3X3X[.*X#XE.#.<XC._ &.;.9X9X9X",
"9X9X9XD B.K #.^ V.6X3X,X#X2XB.2X|.3X3X2X-X*X.X_.z./.6X5X,X#X3Xn.&X=X5X3X2XXX-XP.3XO.j.1X] w C 9X9X9X",
"9X9X9X9XK #.W.[ O.'.5X*X,X6XW.(.$X-.3X5XXX5X2Xg./.+.$X3X*X<X6XV.W.1.<X5X#X3X5Xj.%XJ (.*.z C 9X9X9X9X",
"9X9X9Xj.N.~ ( V %X6X3X<X*X6X6X-.*X3X5X7X X5X7X(.m.<X5X5X<X*X6X5X:.<X5X6X@X3X7X=Xm.O.,XD.z j O.9X9X9X",
"9X9X9Xz [ +.C ] %X6X5X%X3X%X5XK.L.5X3X5X#X-X2X*XN.*X5X6X%X3X%X5XY.,X5X6XXX2X,X<Xm.} _.#XU.9Xz b 9X9X",
"9X9X9XZ S ^ [ ( (.6X<X5X6X,X2.E.U.3X3X2X6X2XW.M.|.&X6X2X5X5X,X,.E.<X5X2X5X3X#X2._.'.b.E.k.9Xz 9XA 9X",
"9X9XV ~ K a.B..XE -X@X2X_.6X|._.a.U.<X=X X-X3XJ.|.&.<X@X<X'.7XR.D.S.<X&X*X#X6XL..X2X2XF.k 9X$.n 9X9X",
"9X9X9XV N J.g.2X{.E.J.<X'.5X<XN.}.R.L.'.@X<X3XXX../.E.J.<X.X5X-XJ.K.E.R.*X*X5X%X;.W.n.N :.Q 9X9X9X9X",
"9X9X9X9X{ k :.|.(.5X,X2X6X6X5XE.s.,X7X%X7X6X6X<X] .X5X*X3X6X6X3XR.@X6X%X6X7X6X2Xm.$.$._.6XL 9X9X9X9X",
"9X9X9XV j.=.' B.A -X2X*X<X3X5X#XK V.8X X5X,X5X,XH.A 5X,X-X1X5X3XR.=.7X#X3X*X6X2X.X&Xf.2XH.T 9X9X9X9X",
"9X9X9X9XH.Y z <XN.*X<X3X*X2Xb.-XY.C.<X3X<X2X|.J.<X,.<X2X2X-X2X,.<Xn.2X3X2X<X%X<.3X5X-XY.Z _ 9X9X9X9X",
"9X9X9X9XA l #.3X&XE.6X#X%X'.K..XK.V.<X5X_.,Xg.&XR.).].6X#X%XY.(.$XK.*X5X'.<Xm.@XW.B.b.E.] ] j B 9X9X",
"9X9XK 9Xj b.[ R.2X-X6X3X5X2X3X ..X<X<X3X6X2X5XT.o.3X-X5X3X5X2X2XX.-X-X5X5X2X3X&XA 1.z.#..XN.^ / 9X9X",
"9X9X9X9Xj Q W.V '.5X,X&X*X1X6X&X'.<X6X$X%X1X3X6X.X*X6X=X&X*X2X6X&X-X6X$X%X>X3X7X'.XX$Xn. .=.x 9X9X9X",
"9X9X9XB / z E +.%X6X@X,X X%XJ.,X X3X3X|.%X-XE..X#X,X6X X,XXX@XJ.<X-X5X|.-X%X'.R.*X_.C.A F C.9X9X9X9X",
"9X9X9X9X;.N *.+.'.6XL.$X,X6X*X+.M.5X*XN.3X5X3Xm.>.#X5XV.*X<X6X@X<.-X<XN.<X2X3XU.M.,X'.M z _.Q.9X9X9X",
"9X9X9X9XL N &.W.,.,X,X6X2X2XR.H.V.XX*X3X5X2X-X] E.b.-X,X6X2X<XJ.x.%X-X2X6X2X2X;.@X3XH.B ;.m P.K 9X9X",
"9X9XJ 9X] _ K.j.j.6X4X3XXX X#XC./.,X5X2X2XI.<Xn.m.L.6X2X3X|.#X'.N.*X5X1X5XI.-XC._.#XC.z l $.J.x 9X9X",
"9X9X( 9X .#./ ] 1X2XN.K.2X<X%XI.#X5X/.H.}.3X-XW.K.3X1Xz.U.2X<X#XR.,X$XV.[.3X<X'._.-X^ ~ B ( G L 9X9X",
"9X9X~ 9X$.S k k $X3X5X,X<X/.` 2.W.,X7X3X%X2X_ 2.1.-X5X5X,X<XH.{ M.XX7X5X*X3X=.>.B.<XA ~ Y.c.w 9X9X9X",
"9X9X9X_ -.z z L $X*X3X5X<X%X%X'.b.,X,X6X<X2X X,X<.&X*X3X5X<X#X*X_.#X-X5X2X3X X-XJ.Y.-./ %...9X9X9X9X",
"9X9X9X9Xl -.M b.-XE.5X5X6X-X5X#X_._.*X6X3X3X,X6XC.%XE.6X6X6X-X7X%X'.|.6X5X6X*X6X_.' [.x.T l.9X9X9X9X",
"9X9X9X*.s.f.C $X3XC.<X;X4X}.@X3X5X].|.-X5X3XR.6X(.,XC.<X>X6X'.-X5X%XL.>X2X6XE.2X$Xl._ L D  .c v 9X9X",
"9Xy.t.7.w.P I oXG.<.+Xi.e.0.e.4X[.v.^.+X5X5Xm.@X).G.v.+X;X5X|.B.-X:.R.,X<X4XH./.&X1XX.v P h 6.q.5.9X",
"d d - 7 t a 8.0.5.5.p 8.a 8.9.8.6.d 3.a !.p.e.q.w.5.4.q.w.OX<Xb.%XV.{.OXi.4.3.0.w.e.y e y i t 7 i y ",
"t % O 8 8 O : & O 8 & O : & 3 = 7 7 * 7 s 7 7 0 - 7 r e u 4.p.! G.y.6.y i s 7 * * % $ 6 $ @ : @ > % ",
": ; > O X O 6 1 : , X , ; ; $ X @ > : # @ . 1 1 , > % @ 1 7 t y y 0 7 3 ; @ . > 2 , > , . 1 : ; : @ ",
"X o O 2 ; $ O o O + O , > ; , > . @ . < , @ : . ; . X @ 1 @ < 2 , % # . $ , @ $ @ @ # . @ , ; : 1 > ",
"8 > o O < + 6 < < 1 % : O O O O 5 , @ # < @ $ 2 , > , $ > X : X % 9 9 : @ $ : @ 2 , : , ; < o @ O @ "
};
