/* XPM */
static char *result[] = {
/* columns rows colors chars-per-pixel */
"50 60 213 2 ",
"   c #2A1E14",
".  c #2E2116",
"X  c #33251A",
"o  c #392A1F",
"O  c #3B2D22",
"+  c #3C342C",
"@  c #4C2B12",
"#  c #47362A",
"$  c #4E3C30",
"%  c #58483C",
"&  c #4E4339",
"*  c #704F31",
"=  c #4E4E4E",
"-  c #554D48",
";  c #57514B",
":  c #535353",
">  c #5C5B5B",
",  c #5A5754",
"<  c #6D5A4B",
"1  c #64554A",
"2  c #715D4D",
"3  c #785D46",
"4  c #645E59",
"5  c #6D5E53",
"6  c #765F50",
"7  c #756254",
"8  c #7A665A",
"9  c #7D6B5D",
"0  c #786456",
"q  c #6F6259",
"w  c #626262",
"e  c #6B6A6A",
"r  c #696767",
"t  c #7D6E65",
"y  c #706F6E",
"u  c #716B67",
"i  c #757474",
"p  c #7C7C7C",
"a  c #7B7673",
"s  c #7E7167",
"d  c #93571F",
"f  c #87511F",
"g  c #9C5E21",
"h  c #955B25",
"j  c #895B3D",
"k  c #AD5A2B",
"l  c #9B6A3B",
"z  c #97663A",
"x  c #8E673F",
"c  c #A36122",
"v  c #AF6824",
"b  c #B56E28",
"n  c #B77727",
"m  c #AC6C33",
"M  c #A16E38",
"N  c #AA7736",
"B  c #BF7730",
"V  c #F04F09",
"C  c #D67619",
"Z  c #C5731E",
"A  c #F1660C",
"S  c #F37A0C",
"D  c #EC691A",
"F  c #F36916",
"G  c #EC7415",
"H  c #F27919",
"J  c #EE6E0D",
"K  c #C56E23",
"L  c #C47629",
"P  c #D76921",
"I  c #F37D21",
"U  c #815E45",
"Y  c #8D6745",
"T  c #936B44",
"R  c #9A6E46",
"E  c #99734F",
"W  c #836D5E",
"Q  c #8C735B",
"!  c #8F7157",
"~  c #987552",
"^  c #A3754D",
"/  c #806F64",
"(  c #847365",
")  c #8B7565",
"_  c #84756A",
"`  c #8C796B",
"'  c #8A796A",
"]  c #927D6D",
"[  c #8C7D72",
"{  c #837D78",
"}  c #917E71",
"|  c #BB8128",
" . c #DA831B",
".. c #FC8B03",
"X. c #F78409",
"o. c #FE9C05",
"O. c #FB9809",
"+. c #FB8C14",
"@. c #FA8C1E",
"#. c #F7851B",
"$. c #FC931C",
"%. c #FB9A1B",
"&. c #F49917",
"*. c #FDA604",
"=. c #F9A00D",
"-. c #F7A211",
";. c #C5803D",
":. c #FC8D24",
">. c #FD8C2B",
",. c #F88726",
"<. c #FB9123",
"1. c #FA9927",
"2. c #E68D21",
"3. c #FEA832",
"4. c #9A826C",
"5. c #938174",
"6. c #998373",
"7. c #93857A",
"8. c #9D8979",
"9. c #9A877A",
"0. c #A38B7B",
"q. c #A18974",
"w. c #A9907F",
"e. c #C8925E",
"r. c #C7996C",
"t. c #8C8C8C",
"y. c #848484",
"u. c #9D8E83",
"i. c #978C82",
"p. c #918F90",
"a. c #949394",
"s. c #9C9B9B",
"d. c #9D9187",
"f. c #A38F80",
"g. c #A39285",
"h. c #AB9584",
"j. c #A2958C",
"k. c #AC9A8D",
"l. c #A7988C",
"z. c #B49C8A",
"x. c #B39986",
"c. c #AC9E94",
"v. c #B19F92",
"b. c #BBA18F",
"n. c #AEA39B",
"m. c #AEA197",
"M. c #B3A194",
"N. c #BBA392",
"B. c #B3A69C",
"V. c #BBA99C",
"C. c #B7AA9E",
"Z. c #AAAAAA",
"A. c gray64",
"S. c #B5ABA3",
"D. c #BCADA2",
"F. c #BDB3AC",
"G. c #BBB0A8",
"H. c #B3B3B3",
"J. c #BDBDBD",
"K. c #C5AD9C",
"L. c #C9AE9C",
"P. c #C3A997",
"I. c #CAB09E",
"U. c #C3B5AB",
"Y. c #CBBAAE",
"T. c #C9B2A3",
"R. c #D9BDAB",
"E. c #D4B9A6",
"W. c #C4BAB3",
"Q. c #CDBEB3",
"!. c #C1AFA4",
"~. c #E1BEA8",
"^. c #CDC3BC",
"/. c #CFC0B6",
"(. c #DCC4B4",
"). c #D3C6BC",
"_. c #DCCABD",
"`. c #D6C3B7",
"'. c #E3C6B3",
"]. c #E6C9B6",
"[. c #E6CBBA",
"{. c #E8CEBD",
"}. c #E9D0BF",
"|. c #E4C3AF",
" X c #C3C3C2",
".X c #CBCBCB",
"XX c #DECEC3",
"oX c #D6CCC6",
"OX c #DED3CC",
"+X c #D7D0CA",
"@X c #D4D4D4",
"#X c #DBDBDB",
"$X c #E4D2C5",
"%X c #EAD3C4",
"&X c #E4D6CC",
"*X c #EEDBCE",
"=X c #E9D7CA",
"-X c #E4D9D2",
";X c #ECDDD3",
":X c #E6DFDA",
">X c #F0DFD3",
",X c #E6CFC0",
"<X c #EDE3DC",
"1X c #EEE0D5",
"2X c #F1E1D6",
"3X c #F2E5DB",
"4X c #E2E2E2",
"5X c #F5EBE4",
"6X c #F7EFEA",
"7X c #F8EFEA",
"8X c #F9F1EC",
"9X c #FAF5F1",
"0X c None",
/* pixels */
"0X0X0X0X0X0X0X0X0X0X0X0X0X0X0X0X0X0X0X0X0X0X0X0X0X0X0X0X0X0X0X0X0X0X0X0X0X0X0X0X0X0X0X0X0X0X0X0X0X0X",
"0X0X0X0X0X0X0X0X0X0X0X0X0X0X0X0X0X0X0X0X0X0X0X0X0X0X0X0X0X0X0X0X0X0X0X0X0X0X0X0X0X0X0X0X0X0X0X0X0X0X",
"0X0X0X0X0X0X0X0X0X0X0X0X0X0X0X0X0X0X0X0X0X0X0X0X0X0X0X0X>.0X0X0X0X0X0X0X0X0X0X0X0X0X0X0X0X0X0X0X0X0X",
"0X0X0X0X0X0X0X0X0X0X0X0X0X0X0X0X0X0X0X0X0X0X0X0X0X0X1.0X>.0X0X0X0X0X0X0X0X0X0X0X0X0X0X0X0X0X0X0X0X0X",
"0X0X0X0X0X0X0X0X0X0X0X0X0X0X0X0X0X0X0X0X0X0X0X0X0X,.0X0X>.>.0X0X0X0X0X0X0X0X0X0X0X0X0X0X0X0X0X0X0X0X",
"0X0X0X0X0X0X0X0X0X0X0X0X0X0X0X0X0X0X0X0X0X0X0X,.H H 0X0X>.>.0X0X0X0X0X0X0X0X0X0X0X0X0X0X0X0X0X0X0X0X",
"0X0X0X0X0X0X0X0X0X0X0X0X0X0X0X0X0X0X0X0X0X0X0XD D H 0X0X>.>.>.0X0X0X0X0X0X0X0X0X0X0X0X0X0X0X0X0X0X0X",
"0X0X0X0X0X0X0X0X0X0X0X0X0X0X0X0X0X0X0X0X0X0X0XA D :.0X0X,.:.<.0X0X0X0X0X3.0X0X0X0X0X0X0X0X0X0X0X0X0X",
"0X0X0X0X0X0X0X0X0X0X0X0X0X0X0X0X0X0X0X0X0X0XA D I <.%.0X0X<.<.#.0X0X0X0X3.0X0X0X0X0X0X0X0X0X0X0X0X0X",
"0X0X0X0X0X0X0X0X0X0X0X0X0X0X0X0X0X0X0X0X*.o.J G ,.<.$.+.+.1.:.#.0X0X0X0X3.0X0X0X0X0X0X0X0X0X0X0X0X0X",
"0X0X0X0X0X0X0X0X0X0X0X0X0X0X0X0X0X0X+.o.o...S H :.<.$.+.+.%.<.@.0X0X0X0X0X0X0X0X0X0X0X0X0X0X0X0X0X0X",
"0X0X0X0X0X0X0X0X0X0X0X0X0X0X0X0X0X+.+.......G L m l l l M N L %.0XV 0X0X0X0X0X0X0X0X0X0X0X0X0X0X0X0X",
"0X0X0X0X0X0X0X0X0X0X0X0X0X0X0X0X0X+.X.S Z T f.U.).-X1X-X$X/.M.4.T k V F ,.0X0X0X0X0X0X0X0X0X0X0X0X0X",
"0X0X0X0X0X0X0X0X0X0X0X0X0X0X0X0X0X#.S z g.#X7X5X6X5X5X5X3X3X3X].I.8.j D @.0X0X0X0X0X0X0X0X0X0X0X0X0X",
"0X0X0X0X0X0X0X0X0X0X0X0X0X0X0X0X0XG z Q.9X8X7X<X5X5X5X3X3X3X3X].].].N.T #.0X0X0X0X0X0X0X0X0X0X0X0X0X",
"0X0X0X0X0X0X0X0X0X0X0X0X0X0X0X0X0XY W.9X8X8X).3X5X5X3X3X3X3X2X].].].[.b.M H 0X0X0X0X0X0X0X0X0X0X0X0X",
"0X0X0X0X0X0X0X0X0X0X0X0X0X0X0X0X0X7.9X9X8X4X;X5X5X5X5X3X>X3X>X].].].].].4.n 0X0X0X0X0X0X0X0X0X0X0X0X",
"0X0X0X0X0X0X0X0X0X0X0X0X0X0X0X0X3 U.9X8X8X5X5X5X5X5X3X3X3X>X{.].].].].].T.T 0X0X0X0X0X0X0X0X0X0X0X0X",
"0X0X0X0X= = = 0X0X0X0X0X0X0Xo.X.Q W.5X8X8X5X5X5X5X5X3X3X>X,X'.'.R.].].].].4.0X0X0X0X0X0X0X0X0X0X0X0X",
"0X0X0X= w Z.i = = 0X0X0X0X0Xo. .c.d.} ^.5X5X5X5X3X>X!.} 7 W w.z.b.(.].].].z.T 0X0X0X0X0X0X0X0X0X0X0X",
"0X0X0X= t.@X@XH.> 0X0X0X0X0X*.L c.O . # { 5X5X3XY.7 # .   . 0 '.].'.[.].].I.T -.0X0X0X0X0X0X0X0X0X0X",
"0X0X0X: Z.J.4X#Xa.0X0X0X0X0X*.| j.      O 5X5X7 o           $ E.].].].].[.(.~ O.0X0X0X0X0X0X0X0X0X0X",
"0X0X0Xw H.H.#X#XZ.: 0X0X0X0X..n l..     X &XoXO             X x.].].].].{.}.! O.0X0X0X0X0X0X0X0X0X0X",
"0X0X0X= s.H. X4X@Xe 0X0X0X0XJ b j.      X OXQ.#               W ].].].[.%X$X! =.0X0X0X0X0X0X0X0X0X0X",
"0X0X0X0Xe H.H.4X#Xs.0X0X0X0XA b l..     X ;X;X#               6 ].].].[.*X%XE -.0X0X0X0X0X0X0X0X0X0X",
"0X0X0X0X: A.H..X#X X: 0X0X0XF K S.- O X - ;X3X/           X % z.].].}.%X;X`.^ &.0X0X0X0X0X0X0X0X0X0X",
"0X0X0X0X0Xp H.H.4X#Xp 0X0X0X0XK v.<X!.c.v./ >XW.$ X O # < f.'.{.].'.%X*X3XV.| &.0X0X0X0X0X0X0X0X0X0X",
"0X0X0X0X0X: Z.H.@X#XZ.= 0X0X0XP ] 9X5X5X/ O oX>XY.h.v.Y.$X*X%X].].|.*X>X;X4. .0X0X0X0X0X0X0X0X0X0X0X",
"0X0X0X0X0X0Xp H.J.4X.Xe 0X0X0X0XU 7X5XOXO   t 3X>X>X>X*X*X%X].].{.%X>X=XB.b H 0X0X0X0X0X0X0X0X0X0X0X",
"0X0X0X0X0X0X> Z.H.#X@Xt.0X0X0X0XU -X5X&X$   7 >X>X>X>X>X%X].'.[.{.[.3XU.T G 0X0X0X0X0X0X0X0X0X0X0X0X",
"0X0X0X0X0X0X0Xy.H..X#XH.= 0X0X0X< W.&X5XY.] $X>X*XR.%X,X'.].~.,X*X>X3Xc.C 0X0X0X0X0X0X0X0X0X0X0X0X0X",
"0X0X0X0X0X0X0X, H.H.4X@Xw 0X0X0X0X< j.5X5X3X>X*X{.v.'.].'.].{.*X2X3X-XE 0X0X0X0X0X0X0X0X0X0X0X0X0X0X",
"0X0X0X0X0X0X0X0Xy.H..X@Xs.0X0X0X0X0Xc.^.3X1X&X%XR.] 0.I.|.[.|.$X).G.7.m 0X0X0X0X0X0X0X0X0X0X0X0X0X0X",
"0X0X0X0X0X0X0X0X> H.J.#XJ.> 0X0X0X0X_ M.3X$X_.'.q.C.-XR ^ x.c.r p.s.; 0X0X0X0X0X0X0X0X0X0X0X0X0X0X0X",
"0X0X0X0X0X0X0X0X0Xa.H.@X.X7.0X0Xd 0X0X2 < ( ) Q | h.XX^ 2.2., p.Z.p r 0X0X0X0X0X0X0X0X0X0X0X0X0X0X0X",
"0X0X0X0X0X0X0X0X0Xr H. XU.~ h v c 0X0X0X0X8 [ 9 i.6.L.] q.' w s.s.s.Z.p 0X0X0X0X0X0X0X0X0X0X0X0X0X0X",
"0X0X0X0X0X0X0X0X0X= 4.R M r.;.b g * 0X0X9 +XG.-X<X-Xv.).<XoX> p.a.s.a.e 0X0X0X0X0X0X0X0X0X0X0X0X0X0X",
"0X0X0X0X0X0X0X0Xd g v L e.m h Y 8 p 0X) _.3Xh.N.v.N.6.z.N.N.t 4 i a s.A.> 0X0X0X0X0X0X0X0X0X0X0X0X0X",
"0X0X0X0X0X0X0X0Xc L b c f * * W.c.e 4 8.[.L._ D.B.S.7.n.B.B.d.; y y.y > 0X0X0X0X0X0X0X0X0X0X0X0X0X0X",
"0X0X0X0X0X0X0X0Xd d d 0Xl.-X5XU.XXj.i [ N.0 9.;X*X*Xv._.*X;XU.0X= 1 ^.v.0X0X0X0X0X0X0X0X0X0X0X0X0X0X",
"0X0X0X0X0X0X0X0X0X0X0X0XP.b.k.u.T.` { e 0X0X2 ` h.] 2 W 0.0.0 0X0X` OXB.0X0X0X0X0X0X0X0X0X0X0X0X0X0X",
"0X0X0X0X0X0X0X0X0X0X0X0X] $X*XQ.9 4 > 0X0X0Xu.OXu.D.W.+Xj.c.W.0X0X5.6X^.0X0X0X0X0X0X0X0X0X0X0X0X0X0X",
"0X0X0X0X0X0X0X0X0X0X0X0X0X0.l.^.W.u > 0X0X0X0X$X*X*Xg.Q.*X*Xk.0X0X] %XK.0X0X0X0X0X0X0X0X0X0X0X0X0X0X",
"0X0X0X0X0X0X0X0X0X0X0X0X0X6.'.K.( t.0X0X0X0X0X] L.z._ ( L.P.7 0X< ` ].z.0X0X0X0X0X0X0X0X0X0X0X0X0X0X",
"0X0X0X0X0X0X0X0X0X0X0X0X0X0X) * @ e , 0X0X0X0X0X} U.j.m.U.( 0X9.S.u.D.u.` 0X0X0X0X0X0X0X0X0X0X0X0X0X",
"0X0X0X0X0X0X0X0X0X0X0X0X0X0X0X@ 0X0X0X0X0X0X0X0XY.$X) g.;Xf.6.h.5XD.<XW.G.0X0X0X0X0X0X0X0X0X0X0X0X0X",
"0X0X0X0X0X0X0X0X0X0X0X0X0X0X0X0X0X0X0X0X0X0X0Xt V.v.0X8 R.h.0X) [.q.,XV.N.0X0X0X0X0X0X0X0X0X0X0X0X0X",
"0X0X0X0X0X0X0X0X0X0X0X0X0X0X0X0X0X0X0X0X0X0X0Xp p y 0X0XV.k.( 9 0.] L.N.` 0X0X0X0X0X0X0X0X0X0X0X0X0X",
"0X0X0X0X0X0X0X0X0X0X0X0X0X0X0X0X0X0X0X0X0X0X0X{ c.i 0X0X` OXW.0X0X0X0X0X0X0X0X0X0X0X0X0X0X0X0X0X0X0X",
"0X0X0X0X0X0X0X0X0X0X0X0X0X0X0X0X0X0X0X0X0X0X0Xh.,Xh.0X0Xt =X_.0X0X0X0X0X0X0X0X0X0X0X0X0X0X0X0X0X0X0X",
"0X0X0X0X0X0X0X0X0X0X0X0X0X0X0X0X0X0X0X0X0X0X0X6.R.` 0X0X& L.'.9 0X0X0X0X0X0X0X0X0X0X0X0X0X0X0X0X0X0X",
"0X0X0X0X0X0X0X0X0X0X0X0X0X0X0X0X0X0X0X0X_ s i.B.W.B.+ 0X0X` Y.c.q 0X0X0X0X0X0X0X0X0X0X0X0X0X0X0X0X0X",
"0X0X0X0X0X0X0X0X0X0X0X0X0X0X0X0X0X0X0X0Xs 5.M.c.8.0.1 [ 6.W.U._.[ 0X0X0X0X0X0X0X0X0X0X0X0X0X0X0X0X0X",
"0X0X0X0X0X0X0X0X0X0X0X0X0X0X0X0X0X0X0X0X0X0X0X0X0X0X- ` } ] 5 - 0X0X0X0X0X0X0X0X0X0X0X0X0X0X0X0X0X0X",
"0X0X0X0X0X0X0X0X0X0X0X0X0X0X0X0X0X0X0X0X0X0X0X0X0X0X0X0X0X0X0X0X0X0X0X0X0X0X0X0X0X0X0X0X0X0X0X0X0X0X",
"0X0X0X0X0X0X0X0X0X0X0X0X0X0X0X0X0X0X0X0X0X0X0X0X0X0X0X0X0X0X0X0X0X0X0X0X0X0X0X0X0X0X0X0X0X0X0X0X0X0X",
"0X0X0X0X0X0X0X0X0X0X0X0X0X0X0X0X0X0X0X0X0X0X0X0X0X0X0X0X0X0X0X0X0X0X0X0X0X0X0X0X0X0X0X0X0X0X0X0X0X0X",
"0X0X0X0X0X0X0X0X0X0X0X0X0X0X0X0X0X0X0X0X0X0X0X0X0X0X0X0X0X0X0X0X0X0X0X0X0X0X0X0X0X0X0X0X0X0X0X0X0X0X",
"0X0X0X0X0X0X0X0X0X0X0X0X0X0X0X0X0X0X0X0X0X0X0X0X0X0X0X0X0X0X0X0X0X0X0X0X0X0X0X0X0X0X0X0X0X0X0X0X0X0X",
"0X0X0X0X0X0X0X0X0X0X0X0X0X0X0X0X0X0X0X0X0X0X0X0X0X0X0X0X0X0X0X0X0X0X0X0X0X0X0X0X0X0X0X0X0X0X0X0X0X0X"
};
