/* XPM */
static char *result[] = {
/* columns rows colors chars-per-pixel */
"50 60 214 2 ",
"   c #2A1E14",
".  c #2E2116",
"X  c #33251A",
"o  c #392A1F",
"O  c #3B2D22",
"+  c #3C342D",
"@  c #4C2B12",
"#  c #47362A",
"$  c #4E3C30",
"%  c #58483C",
"&  c #4F4238",
"*  c #704F31",
"=  c #4E4E4E",
"-  c #554D47",
";  c #56504B",
":  c #535353",
">  c #5B5B5B",
",  c #5A5754",
"<  c #6D5A4B",
"1  c #64554A",
"2  c #715D4D",
"3  c #785E46",
"4  c #645E59",
"5  c #6D5E53",
"6  c #765F50",
"7  c #756254",
"8  c #7A6659",
"9  c #7D6B5D",
"0  c #786456",
"q  c #6F6259",
"w  c #626262",
"e  c #6B6A6A",
"r  c #696867",
"t  c #7C6E64",
"y  c #706F6E",
"u  c #716B67",
"i  c #7F7166",
"p  c #757474",
"a  c #7C7C7C",
"s  c #7B7673",
"d  c #92571E",
"f  c #96591F",
"g  c #87511F",
"h  c #9C5E21",
"j  c #955B25",
"k  c #895B3D",
"l  c #AC5A2B",
"z  c #9B6A3B",
"x  c #97663A",
"c  c #8E673E",
"v  c #A36122",
"b  c #AE6828",
"n  c #B56E28",
"m  c #B77728",
"M  c #A76E36",
"N  c #AA7736",
"B  c #BF7730",
"V  c #F34804",
"C  c #EB5B13",
"Z  c #D67619",
"A  c #C5731E",
"S  c #F1660C",
"D  c #F37A0C",
"F  c #EC691A",
"G  c #EB7513",
"H  c #EE711A",
"J  c #F37919",
"K  c #F06D10",
"L  c #C37428",
"P  c #D16B21",
"I  c #F37D21",
"U  c #815E45",
"Y  c #8D6745",
"T  c #936B44",
"R  c #9A6E46",
"E  c #99734F",
"W  c #836D5E",
"Q  c #8C735B",
"!  c #8F7157",
"~  c #987552",
"^  c #A3754D",
"/  c #847365",
"(  c #8B7565",
")  c #84756A",
"_  c #8B796B",
"`  c #8F7967",
"'  c #927D6D",
"]  c #8C7D72",
"[  c #837D78",
"{  c #917E71",
"}  c #806F64",
"|  c #BB8128",
" . c #DA831B",
".. c #FC8B03",
"X. c #F78409",
"o. c #FE9704",
"O. c #FE9D04",
"+. c #F99B0E",
"@. c #FB8C14",
"#. c #F78C1C",
"$. c #FC8D1C",
"%. c #F8821B",
"&. c #FD941D",
"*. c #F89B18",
"=. c #EF941C",
"-. c #FDA604",
";. c #F7A111",
":. c #C5803D",
">. c #FC8D23",
",. c #FD8C2B",
"<. c #F88626",
"1. c #FB9123",
"2. c #F99927",
"3. c #E68D20",
"4. c #FEA832",
"5. c #9A826C",
"6. c #938174",
"7. c #998373",
"8. c #93857A",
"9. c #9C897A",
"0. c #998779",
"q. c #A28B7B",
"w. c #A18874",
"e. c #A9907F",
"r. c #C8925E",
"t. c #C7996C",
"y. c #8C8C8C",
"u. c #848484",
"i. c #9D8E83",
"p. c #978C83",
"a. c #918F90",
"s. c #949394",
"d. c #9C9B9B",
"f. c #9D9187",
"g. c #A38F80",
"h. c #A39285",
"j. c #AB9584",
"k. c #A2958C",
"l. c #AC9A8D",
"z. c #A7988C",
"x. c #B49C8A",
"c. c #B39986",
"v. c #AC9E94",
"b. c #B19F92",
"n. c #BBA18F",
"m. c #AEA39B",
"M. c #AEA197",
"N. c #B3A194",
"B. c #BBA392",
"V. c #B3A69C",
"C. c #BBA99C",
"Z. c #B7AA9E",
"A. c #AAAAAA",
"S. c gray64",
"D. c #B5ABA3",
"F. c #BCADA2",
"G. c #BDB3AC",
"H. c #BBB0A8",
"J. c #B3B3B3",
"K. c #BDBDBD",
"L. c #C5AD9C",
"P. c #C9AE9C",
"I. c #C3A997",
"U. c #CAB09E",
"Y. c #C3B5AB",
"T. c #CBBAAE",
"R. c #C9B2A3",
"E. c #D9BDAB",
"W. c #D4B9A6",
"Q. c #C4BAB3",
"!. c #CDBEB3",
"~. c #C1AFA4",
"^. c #E1BEA8",
"/. c #CDC3BC",
"(. c #CFC0B6",
"). c #DCC4B4",
"_. c #D3C6BC",
"`. c #DCCABD",
"'. c #D6C3B7",
"]. c #E3C6B3",
"[. c #E6C9B6",
"{. c #E6CBBA",
"}. c #E8CEBD",
"|. c #E9D0BF",
" X c #E4C3AF",
".X c #CBCBCB",
"XX c #C3C3C2",
"oX c #DECEC3",
"OX c #D6CCC6",
"+X c #DED3CC",
"@X c #D7D0CA",
"#X c #D4D4D4",
"$X c #DBDBDB",
"%X c #E4D2C5",
"&X c #EAD3C4",
"*X c #E4D6CC",
"=X c #EEDBCE",
"-X c #E9D7CA",
";X c #E4D9D2",
":X c #ECDDD3",
">X c #E6DFDA",
",X c #F0DFD3",
"<X c #E6CFC0",
"1X c #EDE3DC",
"2X c #EEE0D5",
"3X c #F1E1D6",
"4X c #F2E5DB",
"5X c #E2E2E2",
"6X c #F5EBE4",
"7X c #F7EFEA",
"8X c #F8EFEA",
"9X c #F9F1EC",
"0X c #FAF5F1",
"qX c None",
/* pixels */
"qXqXqXqXqXqXqXqXqXqXqXqXqXqXqXqXqXqXqXqXqXqXqXqXqXqXqXqXqXqXqXqXqXqXqXqXqXqXqXqXqXqXqXqXqXqXqXqXqXqX",
"qXqXqXqXqXqXqXqXqXqXqXqXqXqXqXqXqXqXqXqXqXqXqXqXqXqXqXqXqXqXqXqXqXqXqXqXqXqXqXqXqXqXqXqXqXqXqXqXqXqX",
"qXqXqXqXqXqXqXqXqXqXqXqXqXqXqXqXqXqXqXqXqX,.qXqXqXqXqXqXqXqXqXqXqXqXqXqXqXqXqXqXqXqXqXqXqXqXqXqXqXqX",
"qXqXqXqXqXqXqXqXqXqXqXqXqXqXqXqXqXqXqXqXqX,.qX2.qXqXqXqXqXqXqXqXqXqXqXqXqXqXqXqXqXqXqXqXqXqXqXqXqXqX",
"qXqXqXqXqXqXqXqXqXqXqXqXqXqXqXqXqXqXqXqX,.,.qXqX<.qXqXqXqXqXqXqXqXqXqXqXqXqXqXqXqXqXqXqXqXqXqXqXqXqX",
"qXqXqXqXqXqXqXqXqXqXqXqXqXqXqXqXqXqXqXqX,.,.qXqXI H <.qXqXqXqXqXqXqXqXqXqXqXqXqXqXqXqXqXqXqXqXqXqXqX",
"qXqXqXqXqXqXqXqXqXqXqXqXqXqXqXqXqXqXqX>.,.<.qXqXJ F F qXqXqXqXqXqXqXqXqXqXqXqXqXqXqXqXqXqXqXqXqXqXqX",
"qXqXqXqXqXqXqXqXqXqXqXqXqX4.qXqXqXqXqX1.>.<.qXqX<.H C qXqXqXqXqXqXqXqXqXqXqXqXqXqXqXqXqXqXqXqXqXqXqX",
"qXqXqXqXqXqXqXqXqXqXqXqXqX4.qXqXqXqX%.1.>.qXqX*.1.I F S qXqXqXqXqXqXqXqXqXqXqXqXqXqXqXqXqXqXqXqXqXqX",
"qXqXqXqXqXqXqXqXqXqXqXqXqX4.qXqXqXqX<.1.2.&.@.&.1.<.H G O.-.qXqXqXqXqXqXqXqXqXqXqXqXqXqXqXqXqXqXqXqX",
"qXqXqXqXqXqXqXqXqXqXqXqXqXqXqXqXqXqX1.1.*.@.@.$.1.$.J D ..o.O.@.qXqXqXqXqXqXqXqXqXqXqXqXqXqXqXqXqXqX",
"qXqXqXqXqXqXqXqXqXqXqXqXqXqXqXqXV qX=. .M M z x z N L G ....o.@.$.qXqXqXqXqXqXqXqXqXqXqXqXqXqXqXqXqX",
"qXqXqXqXqXqXqXqXqXqXqXqXqX<.F V l T 5.V.!.oX;X:X*XOXY.g.T P D X.@.qXqXqXqXqXqXqXqXqXqXqXqXqXqXqXqXqX",
"qXqXqXqXqXqXqXqXqXqXqXqXqX#.H k w.R.{.3X4X4X6X6X6X6X7X7X;Xg.x D %.qXqXqXqXqXqXqXqXqXqXqXqXqXqXqXqXqX",
"qXqXqXqXqXqXqXqXqXqXqXqXqX#.Y B.[.[.{.3X4X4X4X6X6X6X>X7X9X0X!.Y J qXqXqXqXqXqXqXqXqXqXqXqXqXqXqXqXqX",
"qXqXqXqXqXqXqXqXqXqXqXqXJ M N.[.[.[.{.3X4X4X4X6X6X6X6X_.9X9X0XG.c qXqXqXqXqXqXqXqXqXqXqXqXqXqXqXqXqX",
"qXqXqXqXqXqXqXqXqXqXqXqXn 5.[.[.[.[.[.,X4X4X4X4X6X6X6X;X4X9X9X0X8.qXqXqXqXqXqXqXqXqXqXqXqXqXqXqXqXqX",
"qXqXqXqXqXqXqXqXqXqXqXqXT W.[.[.[.[.[.}.3X4X4X4X4X6X6X8X7X8X9X0XG.3 qXqXqXqXqXqXqXqXqXqXqXqXqXqXqXqX",
"qXqXqXqXqXqXqXqXqXqXqXqX5.].[.[. XE.].].}.:X3X4X6X6X6X6X7X8X9X6XK.! X.o.qXqXqXqXqXqXqX= = = qXqXqXqX",
"qXqXqXqXqXqXqXqXqXqXqXc x.[.[.[. XI.x.e.W 0 { C.:X6X4X6X7X6X/.6.p.M.Z -.qXqXqXqXqX= = p A.w = qXqXqX",
"qXqXqXqXqXqXqXqXqXqX*.R U.[.[.[.].[. X0 . . . # 8 Q.4X6X6X] +   o M.A -.qXqXqXqXqX> J.#X#Xy.= qXqXqX",
"qXqXqXqXqXqXqXqXqXqX+.E ).{.[.[.[.[.W.$           O 0 4X6XO     . k.| -.qXqXqXqXqXs.$X5XK.A.: qXqXqX",
"qXqXqXqXqXqXqXqXqXqX+.! |.{.[.[.[.[.j.X             # _.*XX     . d.m ..qXqXqXqX: A.$X$XJ.J.w qXqXqX",
"qXqXqXqXqXqXqXqXqXqX+.! -X&X{.[.[.[.W .             O '.+XX     . k.n K qXqXqXqXe #X5XXXJ.d.= qXqXqX",
"qXqXqXqXqXqXqXqXqXqX;.~ +X=X{.[.[.[.6               # -X:XX     . k.n S qXqXqXqXd.$X5XJ.J.e qXqXqXqX",
"qXqXqXqXqXqXqXqXqXqX*.N '.:X&X|.[.[.x.% X           t 4X:X% . O 1 D.L S qXqXqX= XX5X.XJ.S.: qXqXqXqX",
"qXqXqXqXqXqXqXqXqXqX=.| F.3X=X&X[.[.}.).g.< # X X $ T.4X} V.v.F.1XN.P qXqXqXqXa $X5XJ.J.a qXqXqXqXqX",
"qXqXqXqXqXqXqXqXqXqXqX .5.:X2X=X^.[.[.&X=X<XT.B.l.T.4X_.O t 6X7X0X' P qXqXqX= J.$X#XJ.A.: qXqXqXqXqX",
"qXqXqXqXqXqXqXqXqXqXqXJ b C.-X,X&X<X[.[.&X,X,X,X,X4X4Xt   O +X6X8X3 qXqXqXqXe .X$XXXJ.a qXqXqXqXqXqX",
"qXqXqXqXqXqXqXqXqXqXqXqXG T Y.4X<X<X}. X[.&X=X,X,X,X,X8   # *X6X;XU qXqXqXqXa.#X$XJ.A., qXqXqXqXqXqX",
"qXqXqXqXqXqXqXqXqXqXqXqXqXZ v.4X,X=X|.^.[.[.<X&X'.=X,XoX_ !.6X*XQ.2 qXqXqX= J.$XXXJ.u.qXqXqXqXqXqXqX",
"qXqXqXqXqXqXqXqXqXqXqXqXqXqX^ :X4X,X&X|.[.].[.].x.[.=X4X4X4X6Xf.< qXqXqXqXw #X5XJ.J.> qXqXqXqXqXqXqX",
"qXqXqXqXqXqXqXqXqXqXqXqXqXqXb 8.H.OXoX^.<X].L.g.{ E.}.-X2X4X/.v.qXqXqXqXqXd.$X.XJ.u.qXqXqXqXqXqXqXqX",
"qXqXqXqXqXqXqXqXqXqXqXqXqXqXqX; d.y.e b.j.^ R ;XD.w.].`.*X3XN./ qXqXqXqX, K.$XK.J.w qXqXqXqXqXqXqXqX",
"qXqXqXqXqXqXqXqXqXqXqXqXqXqXqXe a A.a., =.3.^ <Xe.N Q ( i 2 < qXqXd qXqXa #X#XJ.a.qXqXqXqXqXqXqXqXqX",
"qXqXqXqXqXqXqXqXqXqXqXqXqXqXa A.d.d.d.r ) w.` P.9.0.t ] 9 qXqXqXqXv b h ~ F./.J.w qXqXqXqXqXqXqXqXqX",
"qXqXqXqXqXqXqXqXqXqXqXqXqXqXe s.d.s.s., OX1X_.b.:X1X;XH.@X9 qXqX* v n :.t.M R 5.= qXqXqXqXqXqXqXqXqX",
"qXqXqXqXqXqXqXqXqXqXqXqXqX, S.d.a p > t n.n.x.7.n.n.B.j.4X`.W qXa W Y j N r.L b h j qXqXqXqXqXqXqXqX",
"qXqXqXqXqXqXqXqXqXqXqXqXqXqX4 y u.e ; f.D.V.m.8.D.m.H.) U.[.q.4 e M.K.* * g v n L v qXqXqXqXqXqXqXqX",
"qXqXqXqXqXqXqXqXqXqXqXqXqXqXb./.1 : qXY.=X=X`.N.=X=X=X0.0 B.] p k.{.F.6X;Xl.qXd f f qXqXqXqXqXqXqXqX",
"qXqXqXqXqXqXqXqXqXqXqXqXqXqXV.+X_ qXqX8 q.q.W 2 ' j._ < qXqXe a _ R.i.l.n.I.qXqXqXqXqXqXqXqXqXqXqXqX",
"qXqXqXqXqXqXqXqXqXqXqXqXqXqX_.7X6.qXqXQ.v.k.@XQ.D.i.+Xi.qXqXqX> 4 9 (.=X%X_ qXqXqXqXqXqXqXqXqXqXqXqX",
"qXqXqXqXqXqXqXqXqXqXqXqXqXqXL.&X' qXqXl.=X=X(.h.=X=X-XqXqXqXqXw u Q./.z.q.qXqXqXqXqXqXqXqXqXqXqXqXqX",
"qXqXqXqXqXqXqXqXqXqXqXqXqXqXx.].' < qX6 B.P.( ) B.P._ qXqXqXqXqXu.( L.].7.qXqXqXqXqXqXqXqXqXqXqXqXqX",
"qXqXqXqXqXqXqXqXqXqXqXqXqX_ i.F.p.D.0.qX/ Y.M.k.Y.] qXqXqXqXqX, e @ * Q qXqXqXqXqXqXqXqXqXqXqXqXqXqX",
"qXqXqXqXqXqXqXqXqXqXqXqXqXH.Q.1XF.6Xj.7.g.:Xh.( %XT.qXqXqXqXqXqXqXqX@ qXqXqXqXqXqXqXqXqXqXqXqXqXqXqX",
"qXqXqXqXqXqXqXqXqXqXqXqXqXB.C.&X9.[.( qXq.).8 qXx.V.t qXqXqXqXqXqXqXqXqXqXqXqXqXqXqXqXqXqXqXqXqXqXqX",
"qXqXqXqXqXqXqXqXqXqXqXqXqX' n.L.' q.W / l.C.qXqXp a a qXqXqXqXqXqXqXqXqXqXqXqXqXqXqXqXqXqXqXqXqXqXqX",
"qXqXqXqXqXqXqXqXqXqXqXqXqXqXqXqXqXqXqXQ.+X_ qXqXs v.a qXqXqXqXqXqXqXqXqXqXqXqXqXqXqXqXqXqXqXqXqXqXqX",
"qXqXqXqXqXqXqXqXqXqXqXqXqXqXqXqXqXqXqX`.&X9 qXqXg.&Xj.qXqXqXqXqXqXqXqXqXqXqXqXqXqXqXqXqXqXqXqXqXqXqX",
"qXqXqXqXqXqXqXqXqXqXqXqXqXqXqXqXqXqX9 ].L.& qXqX_ E.7.qXqXqXqXqXqXqXqXqXqXqXqXqXqXqXqXqXqXqXqXqXqXqX",
"qXqXqXqXqXqXqXqXqXqXqXqXqXqXqXqXqXq v.T.{ qXqX+ V.Q.D.p.i ) qXqXqXqXqXqXqXqXqXqXqXqXqXqXqXqXqXqXqXqX",
"qXqXqXqXqXqXqXqXqXqXqXqXqXqXqXqXqX] oXY.Q.8.] 1 q.9.l.N.6./ qXqXqXqXqXqXqXqXqXqXqXqXqXqXqXqXqXqXqXqX",
"qXqXqXqXqXqXqXqXqXqXqXqXqXqXqXqXqXqX- 5 ' ' { & qXqXqXqXqXqXqXqXqXqXqXqXqXqXqXqXqXqXqXqXqXqXqXqXqXqX",
"qXqXqXqXqXqXqXqXqXqXqXqXqXqXqXqXqXqXqXqXqXqXqXqXqXqXqXqXqXqXqXqXqXqXqXqXqXqXqXqXqXqXqXqXqXqXqXqXqXqX",
"qXqXqXqXqXqXqXqXqXqXqXqXqXqXqXqXqXqXqXqXqXqXqXqXqXqXqXqXqXqXqXqXqXqXqXqXqXqXqXqXqXqXqXqXqXqXqXqXqXqX",
"qXqXqXqXqXqXqXqXqXqXqXqXqXqXqXqXqXqXqXqXqXqXqXqXqXqXqXqXqXqXqXqXqXqXqXqXqXqXqXqXqXqXqXqXqXqXqXqXqXqX",
"qXqXqXqXqXqXqXqXqXqXqXqXqXqXqXqXqXqXqXqXqXqXqXqXqXqXqXqXqXqXqXqXqXqXqXqXqXqXqXqXqXqXqXqXqXqXqXqXqXqX",
"qXqXqXqXqXqXqXqXqXqXqXqXqXqXqXqXqXqXqXqXqXqXqXqXqXqXqXqXqXqXqXqXqXqXqXqXqXqXqXqXqXqXqXqXqXqXqXqXqXqX",
"qXqXqXqXqXqXqXqXqXqXqXqXqXqXqXqXqXqXqXqXqXqXqXqXqXqXqXqXqXqXqXqXqXqXqXqXqXqXqXqXqXqXqXqXqXqXqXqXqXqX"
};
