/* XPM */
static char *result[] = {
/* columns rows colors chars-per-pixel */
"51 50 57 1 ",
"  c #020101",
". c #090605",
"X c #0A0807",
"o c #0D0B09",
"O c #120E0C",
"+ c #15110E",
"@ c #18130F",
"# c #161311",
"$ c #1A1512",
"% c #1E1915",
"& c #1F1B19",
"* c #211B17",
"= c #241D19",
"- c #26211D",
"; c #2A231E",
": c #2D2622",
"> c #2E2925",
", c #302721",
"< c #342B25",
"1 c #392E27",
"2 c #342D28",
"3 c #392F29",
"4 c #36302A",
"5 c #3C322C",
"6 c #3F3630",
"7 c #41362E",
"8 c #433730",
"9 c #463A32",
"0 c #493C34",
"q c #4A3F38",
"w c #4D4037",
"e c #4E4139",
"r c #52453D",
"t c #55483F",
"y c #534740",
"u c #564941",
"i c #5B4D45",
"p c #5E5047",
"a c #5E5148",
"s c #63554C",
"d c #66594F",
"f c #68594F",
"g c #675A50",
"h c #6C5D54",
"j c #6F6056",
"k c #706157",
"l c #736459",
"z c #78675D",
"x c #77685D",
"c c #796A5E",
"v c #7C6E61",
"b c #7F7063",
"n c #817365",
"m c #857769",
"M c #87786A",
"N c #887A6B",
"B c None",
/* pixels */
"BBBBB o%*oo          BB O$.BBXX.XXO&:*---X$>;%o BBB",
"BBB $qglclls04250ypu= oygssy0epa1:ghklxcxadxcch9-.B",
"B  4kljcnMnMMMMMmlkv6#aMmMMblllja>glvbMMMcjcnnmnleB",
" =,sljkknnnnbbnnbkhl3>vvbbblhjhks8hkvbxggjjcnnnbbjB",
"*q0uhssglcccccclkkhlu#gnnvgskkkl0alhka099esjlxvbmjB",
"10090000wetppirskkkkk&ebcs00ysly9ljka990w99esjjcvhB",
"<00090000090997qhlkll&qls0908ys>flku90000w090dlhaiB",
"Oq00000000000009eiiaioah09009s8:fsr80q7**,0w9esr05B",
" ,q0000000900000099q%*ge90009pi$090q01=et$,00090e<B",
"B =90e090000000009q5 7e900909wuo:e85<5slzqO00000q<B",
"BB X#;0eq0900000000O;w00000000w-o;1eskkkhh$,q000q*B",
"BBor8%X=3qq0qq007<O$000000wwq7%o 8jlkkksrt$@q00q1oB",
"B rclk9*O*377<;,,+.7000005223$#*Oglgffiq0=OO9q8,oBB",
" 5lhhzvcfq3780ugi*O;e001=:695=:>Orurw9,$OooOO#O$BBB",
"Xskkcnnnnlllcccca+$o97=<rhllkg:#+,<-$O+;qu0rur3*@;B",
"#rhlnnnnnhhlnnnbj#&%*+ennvkjhv8#+O;,4rhlllzlfhffrOB",
"@qhlncnnnlhcnnnnl%&: 5nnnnvkkli=wslllcnnlhhr999pv9B",
"*qhcnnnnnlhkvnnck%%X,nnnnnnkkk5wxkkjcnnnnnp9009pliB",
"=qfznnnnmlhkklzll& :cnnnnncklw5lkkkcnnccnnt0000slsB",
",qrpkncnvkkkfirri&.acnclllhki>jlkfxnnnnnnnw709qhkgB",
"*0990rshhksr08909o@slkhhkhll61gjkhnnnnnnncsrruskkhB",
"O000070quu9000000o=ikklhfffs-2ilkkknzzzzckkkklkhkhB",
" 100000008000000w+-tkstq00q3X4wrrtrsfhjhhkkkkhkkkhB",
" @0009000000000q<o70r00000q, 50999990we00uhkkkksryB",
"B <q000000000q3*O7009000000#X,w00000008000hlfpr005B",
"B X9q00000009,%O*000000000;$$$w0q000000000tt0990e2B",
"BXXO30000q0<=OO*o1000000e3o@o +@@,00000009000000q$B",
".%:Oo$70q8;3fp;X $0900w7, .=8q903O7q009000000000, B",
"o>>><OO<>:qlkll2X.,r09=O$5albMnln9Oq9000003100e1 BB",
"#>>>##isudlkkjka; X1<O*7tjcvbnvkjfO,w0000@XXO=3XBBB",
"O>>&Oslllkkhklclg%  *3qegcbmnbchks7O,007OO97-O.  BB",
" :>oezhkkhhhvmmvlsO;q0qslbbnnmvlkr99*@*@X000097=OOB",
"  o qlhkhlcvnnnnlh=7q9tlknnnnnnlf000qOX%#0rpisfie7B",
"BB #skkkvnnnnnvncl;;q9skhcnnnnlkf00009$ OrhcnnvlhsB",
"BB=alkhlnnnnnnnnkc0@09plklnnclhlr00009a%+ihvnnnnlhB",
"B<alhkklnnnnbvvlkf9O00thfflkhhlh00009ra*ihkkcnnncsB",
"*5kkhkknnnvclkhsr07O70000wtflkkftrssfl-8lkhkkisllaB",
"#8akhkkkllkhau00900O1000009tlhkhkkkkl5-kkhkls09rssB",
"%0qkkkkkkfuw990000q=@000009slkkkkkjs5%gccvkkp9090rB",
"#00ikkhsr07000000000O,00009tlhhkkhu9ornbnnlkr0q007B",
"$000tt0000900009000w;$q0009tlhkkh00O@lMnckhlr000w1B",
"@000000900000000000w*+q0000ilklke0=*0fnlklksq0007OB",
" 700000009000008007$ o00000rksut0,.70tljfir09000$ B",
" O0090000000000q0-. BB=q900qr0003 ,q90pr000000q* BB",
"B O700000000000,$ BBBB 700090007X#*7q009000000<@BBB",
"BB X3q00000007=;BBBBBBBO9090000* B@X<0q0909007$BBBB",
"BBBBX70000007O@BBBBBBBB $0000q1 BBBB @7000000OBBBBB",
"BBBB O00q709O BBBBBBBBBB *9qw0OBBBBBBB $8qq0O BBBBB",
"BBBBB *7;OOX BBBBBBBBBBBB O;,; BBBBBBBB X,9+ BBBBBB",
"BBBBBB . BBBBBBBBBBBBBBBBBB X BBBBBBBBBBB X BBBBBBB"
};
